<?xml version="1.0" encoding="UTF-8" standalone="no"?>
<svg
   viewBox="0 0 256 256"
   width="1024px"
   height="1024px"
   version="1.1"
   id="svg89"
   sodipodi:docname="animation-workspace.svg"
   inkscape:version="1.1.2 (b8e25be833, 2022-02-05)"
   xmlns:inkscape="http://www.inkscape.org/namespaces/inkscape"
   xmlns:sodipodi="http://sodipodi.sourceforge.net/DTD/sodipodi-0.dtd"
   xmlns="http://www.w3.org/2000/svg"
   xmlns:svg="http://www.w3.org/2000/svg">
  <defs
     id="defs93" />
  <sodipodi:namedview
     id="namedview91"
     pagecolor="#505050"
     bordercolor="#eeeeee"
     borderopacity="1"
     inkscape:pageshadow="0"
     inkscape:pageopacity="0"
     inkscape:pagecheckerboard="0"
     showgrid="false"
     inkscape:zoom="0.60283615"
     inkscape:cx="428.8064"
     inkscape:cy="228.08851"
     inkscape:window-width="3440"
     inkscape:window-height="1361"
     inkscape:window-x="-9"
     inkscape:window-y="-9"
     inkscape:window-maximized="1"
     inkscape:current-layer="Layer_53" />
  <g
     id="Layer_53">
    <g
       id="g552"
       transform="translate(0.26408876,-7.23425)">
      <path
         fill="#5290db"
         d="M 251.1086,60.030482 V 210.43802 c 0,8.86663 -7.18734,16.05396 -16.05396,16.05396 H 20.418264 c -8.866621,0 -16.0539583,-7.18733 -16.0539583,-16.05396 V 60.030482 c 0,-8.866621 7.1873373,-16.053959 16.0539583,-16.053959 H 235.05355 c 8.86662,0 16.05505,7.187338 16.05505,16.053959 z"
         id="path2"
         style="stroke-width:1.08341" />
      <path
         fill="#edf4fc"
         d="m 20.418264,54.810615 c -2.878619,0 -5.219867,2.342331 -5.219867,5.219867 V 210.43802 c 0,2.87862 2.341248,5.21987 5.219867,5.21987 H 235.05355 c 2.87862,0 5.21987,-2.34234 5.21987,-5.21987 V 60.030482 c 0,-2.878619 -2.34125,-5.219867 -5.21987,-5.219867 z"
         id="path4"
         style="stroke-width:1.08341" />
      <path
         fill="#fc657e"
         d="m 15.198397,184.52937 v 25.90865 c 0,2.87862 2.341248,5.21987 5.219867,5.21987 H 235.05355 c 2.87862,0 5.21987,-2.34234 5.21987,-5.21987 v -25.90865 z"
         id="path6"
         style="stroke-width:1.08341" />
      <path
         fill="#70d6f9"
         d="m 26.032491,69.940426 v 99.459134 c 0,2.37266 1.923051,4.29572 4.295717,4.29572 H 225.14253 c 2.37266,0 4.29571,-1.92306 4.29571,-4.29572 V 69.940426 c 0,-2.372666 -1.92305,-4.295717 -4.29571,-4.295717 H 30.329291 c -2.372665,0 -4.2968,1.923051 -4.2968,4.295717 z"
         id="path8"
         style="stroke-width:1.08341" />
      <path
         fill="#b2e26d"
         d="m 137.13935,121.42404 c -1.55685,-0.4962 -2.51784,-2.15058 -2.08447,-3.72585 0.24268,-0.8819 0.37269,-1.8093 0.37269,-2.76811 0,-4.63808 -3.02813,-8.62936 -7.28809,-9.9782 -1.59153,-0.50379 -2.46476,-2.20799 -2.03789,-3.82118 0.39543,-1.497276 0.46694,-3.124558 0.13108,-4.808175 -0.81363,-4.076869 -4.10828,-7.355266 -8.19165,-8.137487 -6.69656,-1.282756 -12.5513,3.814684 -12.5513,10.279388 0,0.958816 0.13001,1.886214 0.37162,2.767024 0.43228,1.57094 -0.51896,3.22965 -2.07148,3.7226 -4.256722,1.351 -7.28268,5.34012 -7.28268,9.97603 0,0.95881 0.130008,1.88729 0.372697,2.76811 0.433358,1.57527 -0.527629,3.22965 -2.084481,3.72585 -4.464733,1.42359 -7.571951,5.75182 -7.245844,10.68133 0.368359,5.56872 5.254534,9.7691 10.835179,9.7691 h 35.165289 c 5.58065,0 10.46682,-4.20146 10.83518,-9.77019 0.3261,-4.92842 -2.78111,-9.25665 -7.24585,-10.68024 z"
         id="path10"
         style="stroke-width:1.08341" />
      <path
         fill="#87d147"
         d="m 87.549552,132.10537 c -0.256768,-3.87103 1.609946,-7.36394 4.582821,-9.37799 -0.812557,-0.55037 -1.704203,-0.99674 -2.663021,-1.30334 -1.556859,-0.4962 -2.517842,-2.15058 -2.084478,-3.72585 0.242683,-0.88082 0.372692,-1.8093 0.372692,-2.76811 0,-4.63808 -3.028129,-8.62936 -7.288094,-9.9782 -1.591529,-0.50379 -2.464756,-2.20799 -2.037893,-3.82118 0.395445,-1.497276 0.466949,-3.124558 0.130009,-4.808175 -0.81364,-4.076869 -4.108288,-7.355266 -8.191657,-8.136403 -6.696553,-1.282758 -12.551296,3.814683 -12.551296,10.279386 0,0.958817 0.130008,1.886212 0.371609,2.767032 0.43228,1.57093 -0.518953,3.22964 -2.071479,3.72259 -4.256715,1.35101 -7.282677,5.34012 -7.282677,9.97603 0,0.95882 0.13001,1.88731 0.372693,2.76811 0.433364,1.57528 -0.527621,3.22965 -2.08448,3.72585 -4.464728,1.4236 -7.571946,5.75182 -7.24584,10.68025 0.368359,5.56872 5.254535,9.77018 10.835176,9.77018 h 35.165297 c 2.291411,0 4.459313,-0.71721 6.252355,-1.93822 -2.57093,-1.75187 -4.363972,-4.55032 -4.581737,-7.83196 z"
         id="path12"
         style="stroke-width:1.08341" />
      <path
         fill="#57af12"
         d="m 220.17834,139.02618 c -5.78215,0 -5.78215,-4.33364 -11.56539,-4.33364 -5.7789,0 -5.7789,4.33364 -11.55781,4.33364 -5.78107,0 -5.78107,-4.33364 -11.56106,-4.33364 -5.7789,0 -5.7789,4.33364 -11.55672,4.33364 -5.77674,0 -5.77674,-4.33364 -11.55349,-4.33364 -5.77674,0 -5.77674,4.33364 -11.55347,4.33364 -3.92627,0 -5.18737,-1.99888 -7.40294,-3.28164 -1.74103,3.65867 -5.60013,6.12993 -9.87635,6.12993 H 98.385812 c -2.29141,0 -4.460395,-0.71722 -6.252356,-1.93823 v 0 c -1.793043,1.22101 -3.960944,1.93823 -6.252354,1.93823 H 50.71472 c -3.910024,0 -7.473357,-2.06714 -9.385574,-5.2177 -1.540608,1.14625 -2.980459,2.36941 -6.048674,2.36941 -4.878592,0 -5.647812,-3.08338 -9.246898,-4.04436 v 34.41774 c 0,2.37266 1.923052,4.29572 4.295717,4.29572 H 225.14361 c 2.37267,0 4.29571,-1.92306 4.29571,-4.29572 v -34.41774 c -3.60558,0.95881 -4.3748,4.04436 -9.26098,4.04436 z"
         id="path14"
         style="stroke-width:1.08341" />
      <circle
         cx="178.65669"
         cy="100.56516"
         r="10.292388"
         fill="#f5c84c"
         id="circle16"
         style="stroke-width:1.08341" />
      <path
         fill="#b2e26d"
         d="m 26.032491,156.36074 v 13.03882 c 0,2.37266 1.923051,4.29572 4.295717,4.29572 H 225.14253 c 2.37266,0 4.29571,-1.92306 4.29571,-4.29572 v -13.03882 z"
         id="path18"
         style="stroke-width:1.08341" />
      <rect
         width="11.002021"
         height="14.486266"
         x="62.796898"
         y="141.87447"
         fill="#c18e6b"
         id="rect20"
         style="stroke-width:1.08341" />
      <rect
         width="11.002021"
         height="14.486266"
         x="110.4669"
         y="141.87447"
         fill="#c18e6b"
         id="rect22"
         style="stroke-width:1.08341" />
      <path
         d="M 235.05464,229.2005 H 20.418264 c -10.345475,0 -18.7624816,-8.417 -18.7624816,-18.76248 V 60.030482 C 1.6557824,49.683923 10.072789,41.268 20.418264,41.268 H 235.05355 c 10.34656,0 18.76249,8.417007 18.76249,18.762482 V 210.43802 c 0.001,10.34656 -8.41593,18.76248 -18.7614,18.76248 z M 20.418264,46.685047 c -7.358516,0 -13.345435,5.986919 -13.345435,13.345435 V 210.43802 c 0,7.35852 5.986919,13.34544 13.345435,13.34544 H 235.05355 c 7.35852,0 13.34544,-5.98692 13.34544,-13.34544 V 60.030482 c 0,-7.358516 -5.98692,-13.345435 -13.34544,-13.345435 z"
         id="path34"
         style="stroke-width:1.08341" />
      <path
         d="m 30.105026,207.52907 c -1.496188,0 -2.708523,-1.21233 -2.708523,-2.70852 v -9.45492 c 0,-1.49619 1.212335,-2.70852 2.708523,-2.70852 1.496188,0 2.708523,1.21233 2.708523,2.70852 v 9.45492 c 0,1.49619 -1.212335,2.70852 -2.708523,2.70852 z"
         id="path36"
         style="stroke-width:1.08341" />
      <path
         d="m 40.104894,207.52907 c -1.496189,0 -2.708524,-1.21233 -2.708524,-2.70852 v -9.45492 c 0,-1.49619 1.212335,-2.70852 2.708524,-2.70852 1.496188,0 2.708522,1.21233 2.708522,2.70852 v 9.45492 c 0,1.49619 -1.212334,2.70852 -2.708522,2.70852 z"
         id="path38"
         style="stroke-width:1.08341" />
      <path
         d="m 152.77945,207.52907 c -1.49619,0 -2.70852,-1.21233 -2.70852,-2.70852 v -9.45492 c 0,-1.49619 1.21233,-2.70852 2.70852,-2.70852 1.49619,0 2.70852,1.21233 2.70852,2.70852 v 9.45492 c 0,1.49619 -1.21233,2.70852 -2.70852,2.70852 z"
         id="path40"
         style="stroke-width:1.08341" />
      <path
         d="M 223.61817,202.80215 H 55.689735 c -1.496188,0 -2.708523,-1.21233 -2.708523,-2.70852 0,-1.49619 1.212335,-2.70852 2.708523,-2.70852 H 223.61817 c 1.49619,0 2.70852,1.21233 2.70852,2.70852 0,1.49619 -1.21233,2.70852 -2.70852,2.70852 z"
         id="path42"
         style="stroke-width:1.08341" />
      <path
         d="m 178.65669,83.230607 c -1.49619,0 -2.70853,-1.212334 -2.70853,-2.708522 v -2.166819 c 0,-1.496189 1.21234,-2.708524 2.70853,-2.708524 1.49618,0 2.70852,1.212335 2.70852,2.708524 v 2.166819 c 0,1.496188 -1.21234,2.708522 -2.70852,2.708522 z"
         id="path44"
         style="stroke-width:1.08341" />
      <path
         d="m 178.65669,125.48357 c -1.49619,0 -2.70853,-1.21234 -2.70853,-2.70853 v -2.16681 c 0,-1.49619 1.21234,-2.70852 2.70853,-2.70852 1.49618,0 2.70852,1.21233 2.70852,2.70852 v 2.16681 c 0,1.49619 -1.21234,2.70853 -2.70852,2.70853 z"
         id="path46"
         style="stroke-width:1.08341" />
      <path
         d="m 164.4846,89.101602 c -0.69337,0 -1.38568,-0.264351 -1.91546,-0.793055 l -1.53303,-1.533024 c -1.05849,-1.058491 -1.05849,-2.772445 0,-3.829852 1.05849,-1.057408 2.77245,-1.058491 3.82986,0 l 1.53303,1.533024 c 1.05848,1.058491 1.05848,2.772444 0,3.829852 -0.52871,0.528704 -1.22101,0.793055 -1.9144,0.793055 z"
         id="path48"
         style="stroke-width:1.08341" />
      <path
         d="m 194.36178,118.97878 c -0.69337,0 -1.38568,-0.26435 -1.91546,-0.79305 l -1.53303,-1.53303 c -1.05849,-1.05849 -1.05849,-2.77245 0,-3.82985 1.05849,-1.05741 2.77244,-1.05849 3.82985,0 l 1.53303,1.53303 c 1.05849,1.05848 1.05849,2.77244 0,3.82985 -0.52871,0.5287 -1.221,0.79305 -1.91439,0.79305 z"
         id="path50"
         style="stroke-width:1.08341" />
      <path
         d="m 158.61361,103.27368 h -2.16682 c -1.49618,0 -2.70852,-1.21234 -2.70852,-2.70852 0,-1.496192 1.21234,-2.708527 2.70852,-2.708527 h 2.16682 c 1.49619,0 2.70852,1.212335 2.70852,2.708527 0,1.49618 -1.21233,2.70852 -2.70852,2.70852 z"
         id="path52"
         style="stroke-width:1.08341" />
      <path
         d="m 200.86658,103.27368 h -2.16683 c -1.49618,0 -2.70852,-1.21234 -2.70852,-2.70852 0,-1.496192 1.21234,-2.708527 2.70852,-2.708527 h 2.16683 c 1.49619,0 2.70852,1.212335 2.70852,2.708527 0,1.49618 -1.21233,2.70852 -2.70852,2.70852 z"
         id="path54"
         style="stroke-width:1.08341" />
      <path
         d="m 162.95158,118.97878 c -0.69338,0 -1.38568,-0.26435 -1.91547,-0.79305 -1.05849,-1.0585 -1.05849,-2.77245 0,-3.82985 l 1.53303,-1.53303 c 1.05849,-1.05849 2.77245,-1.05849 3.82986,0 1.0574,1.05848 1.05848,2.77244 0,3.82985 l -1.53303,1.53303 c -0.5287,0.5287 -1.22101,0.79305 -1.91439,0.79305 z"
         id="path56"
         style="stroke-width:1.08341" />
      <path
         d="m 192.82876,89.101602 c -0.69338,0 -1.38568,-0.264351 -1.91547,-0.793055 -1.05849,-1.058491 -1.05849,-2.772445 0,-3.829852 l 1.53303,-1.533024 c 1.05849,-1.058491 2.77244,-1.058491 3.82985,0 1.05741,1.058491 1.05849,2.772444 0,3.829852 l -1.53303,1.533024 c -0.5287,0.528704 -1.221,0.793055 -1.91438,0.793055 z"
         id="path58"
         style="stroke-width:1.08341" />
      <path
         d="M 235.05464,218.36641 H 20.418264 c -4.371557,0 -7.92839,-3.55683 -7.92839,-7.92839 V 60.030482 c 0,-4.371557 3.556833,-7.92839 7.92839,-7.92839 H 235.05355 c 4.37156,0 7.92731,3.556833 7.92731,7.92839 V 210.43802 c 0.001,4.37156 -3.55467,7.92839 -7.92622,7.92839 z M 20.418264,57.519139 c -1.384597,0 -2.511343,1.126746 -2.511343,2.511343 V 210.43802 c 0,1.3846 1.126746,2.51135 2.511343,2.51135 H 235.05355 c 1.38352,0 2.51027,-1.12675 2.51027,-2.51135 V 60.030482 c 0,-1.384597 -1.12675,-2.511343 -2.51027,-2.511343 z"
         id="path60"
         style="stroke-width:1.08341" />
      <path
         d="M 239.50853,187.23789 H 16.009871 c -1.496188,0 -2.708522,-1.21233 -2.708522,-2.70852 0,-1.49619 1.212334,-2.70852 2.708522,-2.70852 H 239.50853 c 1.49619,0 2.70852,1.21233 2.70852,2.70852 0,1.49619 -1.21233,2.70852 -2.70852,2.70852 z"
         id="path62"
         style="stroke-width:1.08341" />
      <path
         d="M 225.14361,176.4038 H 30.329291 c -3.862353,0 -7.00424,-3.14188 -7.00424,-7.00424 V 69.939342 c 0,-3.86127 3.141887,-7.00424 7.00424,-7.00424 H 225.14361 c 3.86127,0 7.00423,3.141887 7.00423,7.00424 v 99.460218 c 0,3.86236 -3.14187,7.00424 -7.00423,7.00424 z M 30.329291,68.353232 c -0.875394,0 -1.587194,0.7118 -1.587194,1.587194 v 99.460214 c 0,0.8754 0.7118,1.5872 1.587194,1.5872 H 225.14361 c 0.87539,0 1.58719,-0.7118 1.58719,-1.5872 V 69.939342 c 0,-0.875394 -0.7118,-1.587194 -1.58719,-1.587194 H 30.329291 Z"
         id="path64"
         style="stroke-width:1.08341" />
      <path
         d="M 133.55002,144.58299 H 98.384731 c -7.134253,0 -13.081086,-5.40188 -13.538286,-12.29886 -0.401944,-6.07142 3.350986,-11.59898 9.125556,-13.44078 0.204768,-0.0661 0.333686,-0.28927 0.295776,-0.42578 -0.312024,-1.13324 -0.469117,-2.30549 -0.469117,-3.48749 0,-5.77024 3.685756,-10.81676 9.17105,-12.55888 0.19611,-0.0629 0.31636,-0.28494 0.27844,-0.42361 -0.31202,-1.13217 -0.46912,-2.304416 -0.46912,-3.484248 0,-3.945777 1.74537,-7.65212 4.78867,-10.167796 3.0433,-2.514593 7.04433,-3.526498 10.98036,-2.772444 5.15486,0.986985 9.30973,5.113691 10.33789,10.267469 0.40736,2.037893 0.35102,4.067118 -0.16793,6.030259 -0.0629,0.23618 0.0465,0.48644 0.23834,0.54821 5.48964,1.73778 9.17865,6.78539 9.17865,12.55996 0,1.17983 -0.15817,2.35316 -0.4702,3.48641 -0.0379,0.13759 0.091,0.36077 0.29577,0.42686 v 0 c 5.77458,1.8418 9.5275,7.36827 9.12556,13.43969 -0.45611,6.89915 -6.40186,12.30103 -13.53612,12.30103 z M 115.95438,90.694214 c -1.80822,0 -3.52,0.609959 -4.93385,1.778958 -1.79413,1.483187 -2.82337,3.668424 -2.82337,5.992336 0,0.694466 0.0921,1.383514 0.27519,2.048722 0.80822,2.94146 -0.92523,6.09093 -3.86452,7.02158 -3.22531,1.02382 -5.39213,3.99561 -5.39213,7.39535 0,0.69664 0.09205,1.38568 0.275185,2.04981 0.808225,2.93496 -0.92956,6.08552 -3.873185,7.02374 -3.396487,1.08341 -5.602309,4.34122 -5.366126,7.92297 0.268685,4.05954 3.840691,7.23935 8.132067,7.23935 h 35.165299 c 4.29138,0 7.86338,-3.18089 8.13315,-7.24043 0.23619,-3.58067 -1.96964,-6.83848 -5.36721,-7.92189 v 0 c -2.94362,-0.93822 -4.68032,-4.08987 -3.87211,-7.02482 0.18202,-0.66305 0.2752,-1.35318 0.2752,-2.04873 0,-3.40191 -2.16899,-6.3737 -5.39755,-7.39535 -2.95662,-0.93823 -4.64241,-4.05412 -3.83852,-7.09525 0.30552,-1.159244 0.33802,-2.366162 0.0932,-3.587164 -0.60237,-3.017296 -3.03029,-5.431131 -6.04434,-6.008588 -0.52978,-0.100753 -1.0574,-0.150594 -1.57635,-0.150594 z"
         id="path66"
         style="stroke-width:1.08341" />
      <path
         d="M 85.880018,144.58299 H 50.71472 c -7.13425,0 -13.081083,-5.40188 -13.538282,-12.29995 -0.401945,-6.07142 3.350985,-11.59897 9.125556,-13.4386 0.203681,-0.0661 0.33369,-0.29036 0.294688,-0.42795 -0.310939,-1.13216 -0.469117,-2.30441 -0.469117,-3.48641 0,-5.77024 3.685758,-10.81676 9.17106,-12.55888 0.192847,-0.0617 0.316355,-0.28711 0.278436,-0.42253 -0.310938,-1.13216 -0.469117,-2.304412 -0.469117,-3.485328 0,-3.945777 1.745373,-7.65212 4.78867,-10.167796 3.043296,-2.514593 7.04541,-3.526498 10.980352,-2.772444 5.154861,0.986985 9.309737,5.113691 10.337891,10.267469 0.407363,2.037893 0.351025,4.067118 -0.167928,6.030259 -0.06283,0.23618 0.04658,0.48644 0.238351,0.54821 5.488551,1.73778 9.177559,6.78539 9.177559,12.55996 0,1.17983 -0.158178,2.35316 -0.469116,3.48641 -0.03792,0.13759 0.09101,0.36186 0.296854,0.42794 0.980486,0.31203 1.937136,0.75189 2.839616,1.30551 1.275177,0.78331 1.673867,2.45067 0.891644,3.72476 -0.78222,1.27409 -2.448504,1.67278 -3.72476,0.89165 -0.528704,-0.32503 -1.084492,-0.5807 -1.651115,-0.76164 -2.944706,-0.9404 -4.681412,-4.09095 -3.875355,-7.02482 0.183096,-0.66413 0.275185,-1.35426 0.275185,-2.04981 0,-3.40191 -2.168985,-6.3737 -5.397544,-7.39536 -2.956624,-0.93823 -4.642409,-4.05412 -3.838519,-7.09524 0.305522,-1.159251 0.338024,-2.36617 0.09317,-3.587171 -0.602376,-3.017295 -3.030296,-5.431131 -6.044341,-6.008588 -2.377,-0.453949 -4.688995,0.122425 -6.510205,1.627281 -1.794127,1.483187 -2.823365,3.668423 -2.823365,5.992336 0,0.695549 0.09209,1.383514 0.275186,2.048732 0.809306,2.94037 -0.925232,6.09092 -3.863438,7.02157 -3.225309,1.02382 -5.392128,3.99561 -5.392128,7.39535 0,0.69664 0.09209,1.38568 0.275187,2.04981 0.807139,2.93388 -0.929566,6.08551 -3.872105,7.02483 -3.398655,1.08232 -5.604477,4.33905 -5.36721,7.9208 0.268686,4.05954 3.840686,7.24043 8.13207,7.24043 h 35.165298 c 1.465853,0 2.919787,-0.39328 4.204711,-1.13867 1.294675,-0.74863 2.95229,-0.30877 3.702014,0.9859 0.749716,1.2936 0.308773,2.95121 -0.985907,3.70093 -2.10723,1.22426 -4.500482,1.87105 -6.918651,1.87105 z"
         id="path68"
         style="stroke-width:1.08341" />
      <path
         d="m 35.279388,141.7347 c -3.788682,0 -5.794072,-1.49835 -7.405102,-2.70201 -0.713967,-0.53305 -1.33151,-0.99458 -2.056311,-1.27626 -1.394347,-0.54279 -2.08448,-2.11265 -1.541691,-3.507 0.542788,-1.39327 2.114815,-2.07906 3.505912,-1.54168 1.411683,0.55037 2.433337,1.31308 3.333651,1.98479 1.309842,0.97832 2.174402,1.62512 4.163541,1.62512 1.827712,0 2.706357,-0.55037 3.837436,-1.38893 1.202584,-0.88948 2.899203,-0.63813 3.788683,0.56446 0.890562,1.20041 0.63921,2.89812 -0.563374,3.78868 -1.601279,1.18633 -3.600169,2.45283 -7.062745,2.45283 z"
         id="path70"
         style="stroke-width:1.08341" />
      <path
         d="m 220.17834,141.7347 c -3.7941,0 -5.7984,-1.5016 -7.40727,-2.70852 -1.30659,-0.97831 -2.16898,-1.62511 -4.15812,-1.62511 -1.98697,0 -2.84937,0.6468 -4.15379,1.62511 -1.60887,1.20692 -3.61208,2.70852 -7.40402,2.70852 -3.79193,0 -5.79516,-1.5016 -7.40511,-2.70852 -1.3055,-0.97831 -2.16789,-1.62511 -4.15595,-1.62511 -1.98589,0 -2.84829,0.6468 -4.1527,1.62511 -1.60887,1.20584 -3.61209,2.70852 -7.40402,2.70852 -3.79086,0 -5.79408,-1.5016 -7.40186,-2.70852 -1.30442,-0.97831 -2.16682,-1.62511 -4.15271,-1.62511 -1.9848,0 -2.8472,0.6468 -4.15162,1.62511 -1.60778,1.20584 -3.60992,2.70852 -7.40186,2.70852 -3.79193,0 -5.79623,-1.5016 -7.40618,-2.70744 -0.31635,-0.23726 -0.63054,-0.47453 -0.9664,-0.6977 -1.24592,-0.82665 -1.5872,-2.50702 -0.75947,-3.75402 0.82664,-1.24593 2.5081,-1.58828 3.75401,-0.75947 0.42254,0.27952 0.82123,0.57638 1.21993,0.87539 1.30659,0.9794 2.17006,1.6262 4.15811,1.6262 1.98481,0 2.84721,-0.6468 4.15164,-1.62512 1.60777,-1.20582 3.60991,-2.70852 7.40184,-2.70852 3.79194,0 5.79516,1.5027 7.40294,2.70852 1.30442,0.97832 2.16682,1.62512 4.15163,1.62512 1.98697,0 2.84936,-0.6468 4.15379,-1.62512 1.60886,-1.20691 3.611,-2.70852 7.40293,-2.70852 3.79301,0 5.79624,1.50161 7.40619,2.70852 1.3055,0.97832 2.16789,1.62512 4.15487,1.62512 1.98697,0 2.84937,-0.6468 4.15379,-1.62512 1.60887,-1.20691 3.61208,-2.70852 7.40402,-2.70852 3.79302,0 5.79732,1.50161 7.40619,2.70744 1.30659,0.9794 2.17006,1.6262 4.1592,1.6262 1.99348,0 2.86129,-0.6468 4.1733,-1.62512 1.00432,-0.74863 2.14298,-1.5991 3.79409,-2.14948 1.42252,-0.47128 2.95446,0.2947 3.42683,1.71287 0.47345,1.41927 -0.2936,2.95337 -1.71287,3.42682 -0.82556,0.27411 -1.46261,0.74973 -2.26974,1.3521 -1.61211,1.20258 -3.62075,2.69985 -7.41161,2.69985 z"
         id="path72"
         style="stroke-width:1.08341" />
      <path
         d="m 178.65669,113.56607 c -7.16893,0 -13.00092,-5.83199 -13.00092,-13.00091 0,-7.168924 5.83199,-13.000916 13.00092,-13.000916 7.16891,0 13.0009,5.831992 13.0009,13.000916 0,7.16892 -5.83199,13.00091 -13.0009,13.00091 z m 0,-20.584779 c -4.18088,0 -7.58387,3.402988 -7.58387,7.583869 0,4.18087 3.40299,7.58386 7.58387,7.58386 4.18087,0 7.58386,-3.40299 7.58386,-7.58386 0,-4.180881 -3.40299,-7.583869 -7.58386,-7.583869 z"
         id="path74"
         style="stroke-width:1.08341" />
      <path
         d="M 228.39167,159.06926 H 27.08123 c -1.496188,0 -2.708523,-1.21234 -2.708523,-2.70852 0,-1.49619 1.212335,-2.70853 2.708523,-2.70853 h 201.31152 c 1.49619,0 2.70852,1.21234 2.70852,2.70853 0,1.49618 -1.21341,2.70852 -2.7096,2.70852 z"
         id="path76"
         style="stroke-width:1.08341" />
      <path
         d="m 73.798921,157.98584 c -1.496188,0 -2.708523,-1.21233 -2.708523,-2.70852 v -11.963 c 0,-1.49619 1.212335,-2.70852 2.708523,-2.70852 1.496188,0 2.708524,1.21233 2.708524,2.70852 v 11.963 c 0,1.49619 -1.212336,2.70852 -2.708524,2.70852 z"
         id="path78"
         style="stroke-width:1.08341" />
      <path
         d="m 62.796901,157.98584 c -1.49619,0 -2.708524,-1.21233 -2.708524,-2.70852 v -11.87199 c 0,-1.49619 1.212334,-2.70852 2.708524,-2.70852 1.496188,0 2.708522,1.21233 2.708522,2.70852 v 11.87199 c 0,1.49619 -1.213418,2.70852 -2.708522,2.70852 z"
         id="path80"
         style="stroke-width:1.08341" />
      <path
         d="m 121.46893,157.91868 c -1.49619,0 -2.70853,-1.21234 -2.70853,-2.70853 v -11.71491 c 0,-1.49618 1.21234,-2.70852 2.70853,-2.70852 1.49619,0 2.70852,1.21234 2.70852,2.70852 v 11.71491 c 0,1.49619 -1.21233,2.70853 -2.70852,2.70853 z"
         id="path82"
         style="stroke-width:1.08341" />
      <g
         id="g86"
         transform="matrix(1.0834092,0,0,1.0834092,-10.939933,-3.4421333)">
        <path
           d="m 112.06,148.938 c -1.381,0 -2.5,-1.119 -2.5,-2.5 v -11.063 c 0,-1.381 1.119,-2.5 2.5,-2.5 1.381,0 2.5,1.119 2.5,2.5 v 11.063 c 0,1.38 -1.12,2.5 -2.5,2.5 z"
           id="path84" />
      </g>
    </g>
  </g>
</svg>
