<?xml version="1.0" encoding="UTF-8" standalone="no"?>
<svg
   width="1024"
   height="1024"
   viewBox="0 0 1024 1024"
   version="1.1"
   id="svg43"
   sodipodi:docname="autodesk-fusion-360-product-icon.svg"
   inkscape:version="1.1.2 (b8e25be833, 2022-02-05)"
   xmlns:inkscape="http://www.inkscape.org/namespaces/inkscape"
   xmlns:sodipodi="http://sodipodi.sourceforge.net/DTD/sodipodi-0.dtd"
   xmlns="http://www.w3.org/2000/svg"
   xmlns:svg="http://www.w3.org/2000/svg">
  <defs
     id="defs47" />
  <sodipodi:namedview
     id="namedview45"
     pagecolor="#505050"
     bordercolor="#eeeeee"
     borderopacity="1"
     inkscape:pageshadow="0"
     inkscape:pageopacity="0"
     inkscape:pagecheckerboard="0"
     showgrid="false"
     width="965.00018px"
     inkscape:zoom="0.39325909"
     inkscape:cx="1590.5544"
     inkscape:cy="967.5555"
     inkscape:window-width="3440"
     inkscape:window-height="1361"
     inkscape:window-x="-9"
     inkscape:window-y="-9"
     inkscape:window-maximized="1"
     inkscape:current-layer="svg43" />
  <g
     id="g274"
     transform="matrix(0.88244388,0,0,0.88244388,49.641017,62.240159)">
    <g
       id="g261"
       transform="translate(-1156.158,-21.576822)">
      <g
         id="f79a3b4c-22ca-462f-b9f4-7628969251c5"
         data-name="container - COPPER"
         transform="matrix(0.83610518,0,0,0.83610518,1256.2922,103.16626)">
        <path
           id="bc5aef46-3a53-40a7-b4fb-9e2342c871e7"
           data-name="back layer"
           d="M 185,0.15 915,160 h 79 v 864 H 166 A 52,52 0 0 1 114,972 V 754.2921 L 183.4662,2.4109 Z"
           transform="translate(-29)"
           fill="#933c00" />
        <path
           id="f6df9eeb-f9db-4902-abd0-126e45146dea"
           data-name="primary facade"
           d="m 156,0 h 686 a 52,52 0 0 1 52,52 V 720 H 156 Z"
           fill="#ff6b00" />
        <polygon
           id="b60a1302-6edd-4676-8c99-e688efadbe8a"
           data-name="flap"
           points="0,814 156,720 156,0 0,94 "
           fill="#ff9548" />
      </g>
      <g
         id="ab6b1f95-b2ce-4d02-ad3f-778705b9253d"
         transform="matrix(0.83610518,0,0,0.83610518,1256.2922,103.16626)">
        <path
           d="m 356.7612,901.0859 h 35.4239 c 1.08,9.0723 7.3447,17.7129 22.4648,17.7129 13.1758,0 21.8164,-6.2646 21.8164,-19.873 v -4.5352 c 0,-16.416 -16.417,-19.2246 -27.2168,-19.2246 H 397.5854 V 849.8936 H 409.25 c 10.8,0 21.8164,-3.4561 21.8164,-15.9844 v -5.1846 c 0,-9.9355 -6.6963,-14.9043 -17.7119,-14.9043 -12.7441,0 -18.5762,7.9922 -19.44,17.4971 h -35.4257 c 1.08,-23.1123 21.1679,-43.8486 57.0254,-43.8486 30.6718,0 52.7041,15.5517 52.7041,37.8007 v 8.2071 c 0,12.7451 -12.0957,23.7617 -27,27.2168 14.9043,2.5918 32.832,12.7441 32.832,32.4 v 10.1523 c 0,24.4082 -24.4082,42.3369 -57.4561,42.3369 -42.3369,4e-4 -57.457,-22.2476 -59.833,-44.4967 z"
           transform="translate(-29)"
           fill="#ffffff"
           id="path33" />
        <path
           d="m 608.2705,887.6943 v 9.5039 c 0,23.9766 -19.0078,48.3848 -58.7529,48.3848 -38.2329,0 -57.6734,-22.8965 -57.6734,-50.3291 v -53.1367 c 0,-27.2168 16.6329,-54.6484 57.8892,-54.6484 33.9131,0 54.2168,15.3359 55.2969,43.2 h -33.2637 c -0.4326,-10.5839 -7.7764,-16.416 -20.7363,-16.416 -14.9043,0 -22.0332,8.8565 -22.0332,25.4883 v 17.0645 c 7.7763,-8.4248 17.7129,-12.7442 33.2646,-12.7442 29.1612,10e-5 46.0088,20.3038 46.0088,43.6329 z m -37.1523,1.2957 c 0,-11.2324 -5.6162,-18.5761 -17.4961,-18.5761 -10.3682,0 -17.9287,3.6718 -24.625,11.2324 v 15.7676 c 0,11.4482 6.0488,20.5205 20.52,20.5205 14.9043,0 21.6006,-8.8565 21.6006,-21.6006 z"
           transform="translate(-29)"
           fill="#ffffff"
           id="path35" />
        <path
           d="m 627.2549,891.582 v -49.6806 c 0,-33.4805 20.9521,-54.4326 58.7529,-54.4326 38.0166,0 57.8887,20.9521 57.8887,54.4326 v 49.6806 c 0,32.833 -19.8721,54.001 -57.8887,54.001 -37.8008,0 -58.7529,-21.168 -58.7529,-54.001 z m 79.2734,-0.2158 v -49.6807 c 0,-19.44 -7.56,-27.4326 -20.52,-27.4326 -13.8242,0 -21.3848,7.9922 -21.3848,27.4326 v 49.6807 c 0,18.792 7.7764,26.5684 21.3848,26.5684 12.9595,0 20.52,-7.7764 20.52,-26.5684 z"
           transform="translate(-29)"
           fill="#ffffff"
           id="path37" />
      </g>
      <g
         id="a72783bd-b2a2-417e-88d8-efd523927a7a"
         data-name="product initial template"
         transform="matrix(0.83610518,0,0,0.83610518,1256.2922,103.16626)">
        <path
           d="m 546.0254,232.9429 v 95.1909 h 131.1025 v 70.6811 H 546.0254 V 560.127 h -99.751 V 161.1221 h 254.793 v 71.8208 z"
           transform="translate(-29)"
           fill="#ffffff"
           id="path40" />
      </g>
    </g>
  </g>
</svg>
