<svg xmlns="http://www.w3.org/2000/svg"  viewBox="0 0 256 256" width="1024px" height="1024px"><path fill="#afafaf" d="M251.24,36.46v140.23c0,5.91-4.79,10.69-10.69,10.69H15.45c-5.9,0-10.69-4.78-10.69-10.69V34.807 c0-5.91,4.79-10.69,10.69-10.69h225.1C246.45,24.117,251.24,30.55,251.24,36.46z"/><rect width="216.56" height="133.343" x="19.72" y="39.077" fill="#72c2e9"/><polygon fill="#afafaf" points="149.21,217.14 106.79,217.14 109.643,196.742 110.957,187.382 145.043,187.382 146.357,196.742"/><polygon fill="#878787" points="146.357,196.742 109.643,196.742 110.957,187.382 145.043,187.382"/><path fill="#afafaf" d="M171.169,224.617v7.266H84.831v-7.266c0-4.125,3.345-7.48,7.48-7.48h71.378 C167.824,217.138,171.169,220.493,171.169,224.617z"/><rect width="216.56" height="20.75" x="19.72" y="39.077" fill="#eff0f0"/><polygon fill="#fc5d3d" points="128,78.778 86.994,94.421 86.994,141.006 128,156.653 169.006,141.006 169.006,94.421"/><path fill="#ffcbc3" d="M127.105,147.989l-19.666-7.504c-1.29-0.492-1.937-1.938-1.444-3.228c0.493-1.29,1.938-1.933,3.228-1.444 l18.774,7.164l29.473-11.246v-21.008c0-1.381,1.119-2.5,2.5-2.5s2.5,1.119,2.5,2.5v22.729c0,1.037-0.64,1.966-1.608,2.336 l-31.973,12.2C128.314,148.208,127.68,148.208,127.105,147.989z M98.097,136.92l-2.866-1.094c-1.29-0.492-1.937-1.938-1.444-3.228 c0.493-1.288,1.934-1.935,3.228-1.444l2.866,1.094c1.29,0.492,1.937,1.938,1.444,3.228 C100.838,136.746,99.411,137.418,98.097,136.92z"/><circle cx="187.58" cy="187.38" r="2.5"/><path d="M240.55,21.62H57.84c-1.38,0-2.5,1.12-2.5,2.5c0,1.37,1.12,2.5,2.5,2.5h182.729c4.401,0,8.19,5.28,8.171,9.84v140.229 c-0.011,4.511-3.681,8.181-8.19,8.19h-42.97c-1.38,0-2.5,1.12-2.5,2.5s1.12,2.5,2.5,2.5h42.97c7.27,0,13.19-5.92,13.19-13.19V36.46 C253.718,29.152,247.906,21.62,240.55,21.62z"/><path d="M15.45,189.88h92.63l-3.469,24.76H92.31c-5.5,0-9.979,4.47-9.979,9.98v7.27c0,1.363,1.101,2.49,2.5,2.49h86.34 c1.4,0,2.5-1.13,2.5-2.49v-7.27c0-5.511-4.48-9.98-9.98-9.98h-12.301l-3.469-24.76h29.661c1.38,0,2.5-1.12,2.5-2.5 s-1.12-2.5-2.5-2.5c-7.577,0-156.256,0-162.13,0c-4.511-0.01-8.181-3.68-8.19-8.19V34.81c0.01-4.51,3.68-8.189,8.19-8.189h22.39 c1.38,0,2.5-1.13,2.5-2.5c0-1.38-1.12-2.5-2.5-2.5H15.45c-7.271,0-13.19,5.91-13.19,13.189v141.88 C2.26,183.96,8.18,189.88,15.45,189.88z M168.67,224.62v4.76H87.33v-4.76c0.01-2.74,2.239-4.98,4.979-4.98 c15.004,0,56.372,0,71.38,0C166.43,219.64,168.66,221.88,168.67,224.62z M142.87,189.88l3.47,24.76h-36.68l3.47-24.76H142.87z"/><circle cx="47.84" cy="24.12" r="2.5"/><path d="M238.78,172.42c0-7.278,0-127.91,0-133.344c0-1.381-1.119-2.5-2.5-2.5H19.72c-1.381,0-2.5,1.119-2.5,2.5 c0,5.444,0,126.067,0,133.344c0,1.381,1.119,2.5,2.5,2.5H236.28C237.661,174.92,238.78,173.801,238.78,172.42z M22.22,41.576 H233.78v15.75H22.22V41.576z M22.22,169.92V62.326H233.78V169.92H22.22z"/><path d="M171.497,94.385c-0.013-0.979-0.633-1.933-1.598-2.305l-41.01-15.641c-0.56-0.22-1.22-0.22-1.78,0L86.1,92.08 c-0.919,0.355-1.609,1.303-1.609,2.34v46.59c0,1.021,0.649,1.96,1.609,2.33l41.01,15.65c0.508,0.191,1.195,0.221,1.78,0 l41.01-15.65c0.96-0.37,1.601-1.3,1.601-2.33v-16.75c0-1.38-1.12-2.5-2.49-2.5c-1.38,0-2.5,1.12-2.5,2.5v15.021l-36.01,13.745 V111.79l36.002-13.737l0.007,6.208c0,1.38,1.12,2.5,2.5,2.5s2.5-1.12,2.5-2.5c0-0.01,0-0.01-0.01-0.02 C171.5,104.045,171.501,94.581,171.497,94.385z M128,81.45l33.994,12.97L128,107.392L94.002,94.419L128,81.45z M89.49,98.049 l36.01,13.74v41.236L89.49,139.28V98.049z"/><path d="M169.01,111.76c-1.38,0-2.5,1.12-2.5,2.5s1.12,2.5,2.5,2.5c1.37,0,2.49-1.12,2.49-2.5S170.38,111.76,169.01,111.76z"/><path d="M58.35,46.95H33.02c-1.38,0-2.5,1.119-2.5,2.5c0,1.38,1.12,2.5,2.5,2.5h25.33c1.38,0,2.5-1.12,2.5-2.5 C60.85,48.069,59.729,46.95,58.35,46.95z"/><path d="M101.02,46.95h-25.33c-1.38,0-2.5,1.119-2.5,2.5c0,1.38,1.12,2.5,2.5,2.5h25.33c1.38,0,2.5-1.12,2.5-2.5 C103.52,48.069,102.399,46.95,101.02,46.95z"/><path d="M143.689,46.95h-25.34c-1.37,0-2.5,1.119-2.5,2.5c0,1.38,1.13,2.5,2.5,2.5h25.34c1.37,0,2.5-1.12,2.5-2.5 C146.189,48.069,145.06,46.95,143.689,46.95z"/><path d="M222.979,46.95h-25.33c-1.38,0-2.5,1.119-2.5,2.5c0,1.38,1.12,2.5,2.5,2.5h25.33c1.38,0,2.5-1.12,2.5-2.5 C225.479,48.069,224.359,46.95,222.979,46.95z"/></svg>