<svg xmlns="http://www.w3.org/2000/svg" xmlns:xlink="http://www.w3.org/1999/xlink" viewBox="0,0,256,256" width="1024px" height="1024px" fill-rule="nonzero"><g fill="none" fill-rule="nonzero" stroke="none" stroke-width="1" stroke-linecap="butt" stroke-linejoin="miter" stroke-miterlimit="10" stroke-dasharray="" stroke-dashoffset="0" font-family="none" font-weight="none" font-size="none" text-anchor="none" style="mix-blend-mode: normal"><g transform="scale(4,4)"><rect x="13.5268" y="-7.77548" transform="rotate(45)" width="63.55" height="18.25" rx="2" ry="2" fill="#c2cde7"></rect><path d="M58.59,47.59l-42.11,-42.11c-0.37514,-0.37555 -0.88418,-0.58657 -1.415,-0.58657c-0.53082,0 -1.03986,0.21102 -1.415,0.58657l-1.59,1.58l44.94,44.94l1.59,-1.59c0.77545,-0.78007 0.77545,-2.03993 0,-2.82z" fill="#d6dff2"></path><path transform="translate(23.78985,-32.40979) rotate(45)" d="M46.2,7.92h9.63c2.20914,0 4,1.79086 4,4v5.18h-17.63v-5.18c0,-2.20914 1.79086,-4 4,-4z" fill="#ed7899"></path><path transform="translate(27.11019,-25.06978) rotate(45)" d="M32.5,15.51h22.63v9.36h-22.63z" fill="#c2cde7"></path><path transform="translate(34.35993,-7.5702) rotate(45)" d="M17.12,17.45h18.38v40.48h-18.38z" fill="#f9e3ae"></path><path transform="translate(38.60963,-9.3299) rotate(45)" d="M27.38,21.7h6.36v40.48h-6.36z" fill="#f6d397"></path><path d="M5,57l1,-11l7,1l1,3l2.92,1.5l2.08,7.5h-12z" fill="#faefde"></path><path transform="translate(30.10993,-5.80979) rotate(45)" d="M18.88,13.2h6.36v40.48h-6.36z" fill="#faefde"></path><path d="M45.19,33l1.55,-1.55c0.77391,0.74289 1.99609,0.74289 2.77,0l5.66,-5.66c0.37555,-0.37514 0.58657,-0.88418 0.58657,-1.415c0,-0.53082 -0.21102,-1.03986 -0.58657,-1.415v0l3.54,-3.54c1.95191,-1.9525 1.95191,-5.1175 0,-7.07l-7.07,-7.06c-1.9525,-1.95191 -5.1175,-1.95191 -7.07,0l-3.57,3.54v0c-0.37514,-0.37555 -0.88418,-0.58657 -1.415,-0.58657c-0.53082,0 -1.03986,0.21102 -1.415,0.58657l-5.66,5.66c-0.37555,0.37514 -0.58657,0.88418 -0.58657,1.415c0,0.53082 0.21102,1.03986 0.58657,1.415v0l-1.51,1.59l-14.14,-14.19c-1.18638,-1.1327 -3.05362,-1.1327 -4.24,0l-9.9,9.9c-1.16981,1.17127 -1.16981,3.06873 0,4.24l14.18,14.14l-11.38,11.4c-0.50403,0.50349 -0.81242,1.16991 -0.87,1.88l-0.65,8.4l-0.7,4.92c-0.04081,0.2885 0.04625,0.58045 0.23839,0.79949c0.19214,0.21904 0.47026,0.34339 0.76161,0.34051h0.1l4.92,-0.74l8.44,-0.62c0.71713,-0.05292 1.3914,-0.36166 1.9,-0.87l11.34,-11.33l14.1,14.1c1.17127,1.16981 3.06873,1.16981 4.24,0l9.9,-9.9c1.16981,-1.17127 1.16981,-3.06873 0,-4.24zM42.44,10.24l3.56,-3.53c1.18638,-1.1327 3.05362,-1.1327 4.24,0l7.07,7.07c1.16981,1.17127 1.16981,3.06873 0,4.24l-3.54,3.54l-5.67,-5.66zM35.37,14.48v0c0.39004,0.38772 1.01996,0.38772 1.41,0l1.41,-1.41c0.38772,-0.39004 0.38772,-1.01996 0,-1.41v0l1.41,-1.41l7.07,7.07l6.36,6.36v0l0.71,0.71l-1.4,1.41v0c-0.39004,-0.38772 -1.01996,-0.38772 -1.41,0l-1.41,1.41c-0.38772,0.39004 -0.38772,1.01996 0,1.41v0l-1.42,1.38v0l-14.1,-14.1zM4.13,17.48c-0.38772,-0.39004 -0.38772,-1.01996 0,-1.41l9.87,-9.94c0.39004,-0.38772 1.01996,-0.38772 1.41,0l0.71,0.71l-2.12,2.16c-0.28538,0.24439 -0.40968,0.62812 -0.32181,0.99342c0.08787,0.3653 0.37309,0.65052 0.73839,0.73839c0.3653,0.08787 0.74903,-0.03643 0.99342,-0.32181l2.12,-2.12l2.12,2.12l-3.54,3.54c-0.28538,0.24439 -0.40968,0.62812 -0.32181,0.99342c0.08787,0.3653 0.37309,0.65052 0.73839,0.73839c0.3653,0.08787 0.74903,-0.03643 0.99342,-0.32181l3.54,-3.54l2.12,2.12l-2.08,2.06c-0.28538,0.24439 -0.40968,0.62812 -0.32181,0.99342c0.08787,0.3653 0.37309,0.65052 0.73839,0.73839c0.3653,0.08787 0.74903,-0.03643 0.99342,-0.32181l2.12,-2.12l2.12,2.12l-3.53,3.59c-0.28538,0.24439 -0.40968,0.62812 -0.32181,0.99342c0.08787,0.3653 0.37309,0.65052 0.73839,0.73839c0.3653,0.08787 0.74903,-0.03643 0.99342,-0.32181l3.53,-3.54l1.46,1.46l-11.31,11.29zM11.9,47.86l0.58,2.88c0.08012,0.39286 0.38714,0.69988 0.78,0.78l2.88,0.58l1.07,5.34l-7.62,0.56l-3.59,-3.59l0.61,-7.61zM19,56.35l-1,-4.76l16.67,-16.59c0.33978,-0.39676 0.31693,-0.98819 -0.05244,-1.35756c-0.36937,-0.36937 -0.9608,-0.39221 -1.35756,-0.05244l-16.6,16.58l-2.36,-0.47l-0.47,-2.36l13.76,-13.76c0.33978,-0.39676 0.31693,-0.98819 -0.05244,-1.35756c-0.36937,-0.36937 -0.9608,-0.39221 -1.35756,-0.05244l-13.76,13.76l-4.67,-0.93l26.25,-26.22l11.32,11.31zM57.87,50l-9.87,9.87c-0.39004,0.38772 -1.01996,0.38772 -1.41,0l-14.1,-14.1l11.29,-11.31l0.66,0.66v0l-2.12,2.12c-0.28538,0.24439 -0.40968,0.62812 -0.32181,0.99342c0.08787,0.3653 0.37309,0.65052 0.73839,0.73839c0.3653,0.08787 0.74903,-0.03643 0.99342,-0.32181l2.12,-2.12v0l2.15,2.13v0l-3.54,3.54c-0.28538,0.24439 -0.40968,0.62812 -0.32181,0.99342c0.08787,0.3653 0.37309,0.65052 0.73839,0.73839c0.3653,0.08787 0.74903,-0.03643 0.99342,-0.32181l3.54,-3.54v0l2.12,2.12v0l-2.12,2.12c-0.28538,0.24439 -0.40968,0.62812 -0.32181,0.99342c0.08787,0.3653 0.37309,0.65052 0.73839,0.73839c0.3653,0.08787 0.74903,-0.03643 0.99342,-0.32181l2.12,-2.12v0l2.06,2.13l-3.54,3.54c-0.28538,0.24439 -0.40968,0.62812 -0.32181,0.99342c0.08787,0.3653 0.37309,0.65052 0.73839,0.73839c0.3653,0.08787 0.74903,-0.03643 0.99342,-0.32181l3.54,-3.54l1.41,1.41c0.2054,0.18185 0.32707,0.44009 0.33652,0.71426c0.00945,0.27417 -0.09414,0.54018 -0.28652,0.73574z" fill="#000000"></path><path d="M40.32,15.19l-1.41,1.41c-0.30031,0.24027 -0.43621,0.63148 -0.34953,1.00618c0.08667,0.3747 0.38055,0.6665 0.75586,0.7505c0.37531,0.084 0.76554,-0.05468 1.00367,-0.35669l1.41,-1.41c0.33978,-0.39676 0.31693,-0.98819 -0.05244,-1.35756c-0.36937,-0.36937 -0.9608,-0.39221 -1.35756,-0.05244zM43.86,18.73l-1.41,1.42c-0.38936,0.39212 -0.38712,1.02564 0.005,1.415c0.39212,0.38936 1.02564,0.38712 1.415,-0.005l1.41,-1.42c0.38936,-0.39212 0.38712,-1.02564 -0.005,-1.415c-0.39212,-0.38936 -1.02564,-0.38712 -1.415,0.005zM48.81,22.26c-0.39004,-0.38772 -1.01996,-0.38772 -1.41,0l-1.4,1.42c-0.28538,0.24439 -0.40968,0.62812 -0.32181,0.99342c0.08787,0.3653 0.37309,0.65052 0.73839,0.73839c0.3653,0.08787 0.74903,-0.03643 0.99342,-0.32181l1.41,-1.41c0.188,-0.1891 0.29269,-0.44544 0.29081,-0.71208c-0.00188,-0.26664 -0.11017,-0.52149 -0.30081,-0.70792zM31.84,26.51l-2.84,2.82c-0.28538,0.24439 -0.40968,0.62812 -0.32181,0.99342c0.08787,0.3653 0.37309,0.65052 0.73839,0.73839c0.3653,0.08787 0.74903,-0.03643 0.99342,-0.32181l2.83,-2.83c0.33978,-0.39676 0.31693,-0.98819 -0.05244,-1.35756c-0.36937,-0.36937 -0.9608,-0.39221 -1.35756,-0.05244z" fill="#000000"></path></g></g></svg>