<svg xmlns="http://www.w3.org/2000/svg"  viewBox="0 0 64 64" width="1024px" height="1024px"><rect width="34" height="34" x="15" y="15" fill="#536882" rx="1" ry="1" transform="rotate(90 32 32)"/><rect width="26" height="26" x="19" y="19" fill="#d3dce5"/><circle cx="32" cy="8" r="2" fill="#edae65"/><circle cx="21" cy="6" r="2" fill="#edae65"/><circle cx="34" cy="27" r="2" fill="#edae65"/><circle cx="43" cy="6" r="2" fill="#edae65"/><circle cx="32" cy="56" r="2" fill="#edae65"/><circle cx="21" cy="58" r="2" fill="#edae65"/><circle cx="43" cy="58" r="2" fill="#edae65"/><circle cx="8" cy="32" r="2" fill="#edae65"/><circle cx="6" cy="21" r="2" fill="#edae65"/><circle cx="6" cy="43" r="2" fill="#edae65"/><circle cx="56" cy="32" r="2" fill="#edae65"/><circle cx="58" cy="43" r="2" fill="#edae65"/><circle cx="58" cy="21" r="2" fill="#edae65"/><polygon fill="#50823f" points="38.02 45 31.6 45 34.81 40 38.02 35 41.22 40 44.43 45 38.02 45"/><polygon fill="#78b24c" points="28.02 45 19.03 45 23.52 38 28.02 31 32.51 38 37 45 28.02 45"/><path fill="#1a2c3d" d="M45,18H19c-.55,0-1,.45-1,1v26c0,.55,.45,1,1,1h26c.55,0,1-.45,1-1V19c0-.55-.45-1-1-1Zm-1,2v22.48l-5.14-8.02c-.18-.29-.5-.46-.84-.46h0c-.34,0-.66,.17-.84,.46l-2.88,4.48-5.44-8.48c-.37-.57-1.32-.57-1.68,0l-7.17,11.18V20h24Zm-6.45,24l-2.06-3.21,2.53-3.94,4.58,7.15h-5.05Zm-2.38,0h-14.31l7.15-11.15,7.15,11.15Zm-1.17-14c1.65,0,3-1.35,3-3s-1.35-3-3-3-3,1.35-3,3,1.35,3,3,3Zm0-4c.55,0,1,.45,1,1s-.45,1-1,1-1-.45-1-1,.45-1,1-1Zm24,14c-1.3,0-2.4,.84-2.82,2h-1.65l-1.7-2.55c-.19-.28-.5-.45-.83-.45h-1v-6h3.18c.41,1.16,1.51,2,2.82,2,1.65,0,3-1.35,3-3s-1.35-3-3-3c-1.3,0-2.4,.84-2.82,2h-3.18v-6h1c.33,0,.65-.17,.83-.45l1.7-2.55h1.65c.41,1.16,1.51,2,2.82,2,1.65,0,3-1.35,3-3s-1.35-3-3-3c-1.3,0-2.4,.84-2.82,2h-2.18c-.33,0-.65,.17-.83,.45l-1.7,2.55h-.46v-7c0-1.1-.9-2-2-2h-7v-.46l2.55-1.7c.28-.19,.45-.5,.45-.83v-2.18c1.16-.41,2-1.51,2-2.82,0-1.65-1.35-3-3-3s-3,1.35-3,3c0,1.3,.84,2.4,2,2.82v1.65l-2.55,1.7c-.28,.19-.45,.5-.45,.83v1h-6v-3.18c1.16-.41,2-1.51,2-2.82,0-1.65-1.35-3-3-3s-3,1.35-3,3c0,1.3,.84,2.4,2,2.82v3.18h-6v-1c0-.33-.17-.65-.45-.83l-2.55-1.7v-1.65c1.16-.41,2-1.51,2-2.82,0-1.65-1.35-3-3-3s-3,1.35-3,3c0,1.3,.84,2.4,2,2.82v2.18c0,.33,.17,.65,.45,.83l2.55,1.7v.46h-7c-1.1,0-2,.9-2,2v7h-.46l-1.7-2.55c-.19-.28-.5-.45-.83-.45h-2.18c-.41-1.16-1.51-2-2.82-2-1.65,0-3,1.35-3,3s1.35,3,3,3c1.3,0,2.4-.84,2.82-2h1.65l1.7,2.55c.19,.28,.5,.45,.83,.45h1v6h-3.18c-.41-1.16-1.51-2-2.82-2-1.65,0-3,1.35-3,3s1.35,3,3,3c1.3,0,2.4-.84,2.82-2h3.18v6h-1c-.33,0-.65,.17-.83,.45l-1.7,2.55h-1.65c-.41-1.16-1.51-2-2.82-2-1.65,0-3,1.35-3,3s1.35,3,3,3c1.3,0,2.4-.84,2.82-2h2.18c.33,0,.65-.17,.83-.45l1.7-2.55h.46v7c0,1.1,.9,2,2,2h7v.46l-2.55,1.7c-.28,.19-.45,.5-.45,.83v2.18c-1.16,.41-2,1.51-2,2.82,0,1.65,1.35,3,3,3s3-1.35,3-3c0-1.3-.84-2.4-2-2.82v-1.65l2.55-1.7c.28-.19,.45-.5,.45-.83v-1h6v3.18c-1.16,.41-2,1.51-2,2.82,0,1.65,1.35,3,3,3s3-1.35,3-3c0-1.3-.84-2.4-2-2.82v-3.18h6v1c0,.33,.17,.65,.45,.83l2.55,1.7v1.65c-1.16,.41-2,1.51-2,2.82,0,1.65,1.35,3,3,3s3-1.35,3-3c0-1.3-.84-2.4-2-2.82v-2.18c0-.33-.17-.65-.45-.83l-2.55-1.7v-.46h7c1.1,0,2-.9,2-2v-7h.46l1.7,2.55c.19,.28,.5,.45,.83,.45h2.18c.41,1.16,1.51,2,2.82,2,1.65,0,3-1.35,3-3s-1.35-3-3-3Zm-2-9c.55,0,1,.45,1,1s-.45,1-1,1-1-.45-1-1,.45-1,1-1Zm2-11c.55,0,1,.45,1,1s-.45,1-1,1-1-.45-1-1,.45-1,1-1Zm-15-15c.55,0,1,.45,1,1s-.45,1-1,1-1-.45-1-1,.45-1,1-1Zm-11,2c.55,0,1,.45,1,1s-.45,1-1,1-1-.45-1-1,.45-1,1-1Zm-11-2c.55,0,1,.45,1,1s-.45,1-1,1-1-.45-1-1,.45-1,1-1ZM6,22c-.55,0-1-.45-1-1s.45-1,1-1,1,.45,1,1-.45,1-1,1Zm2,11c-.55,0-1-.45-1-1s.45-1,1-1,1,.45,1,1-.45,1-1,1Zm-2,11c-.55,0-1-.45-1-1s.45-1,1-1,1,.45,1,1-.45,1-1,1Zm15,15c-.55,0-1-.45-1-1s.45-1,1-1,1,.45,1,1-.45,1-1,1Zm11-2c-.55,0-1-.45-1-1s.45-1,1-1,1,.45,1,1-.45,1-1,1Zm11,2c-.55,0-1-.45-1-1s.45-1,1-1,1,.45,1,1-.45,1-1,1Zm5-11h-8s0,0,0,0,0,0,0,0h-7.99s0,0,0,0,0,0,0,0h-7.99s0,0,0,0,0,0,0,0h-7.99s0-32,0-32H48V48Zm10-4c-.55,0-1-.45-1-1s.45-1,1-1,1,.45,1,1-.45,1-1,1Z"/></svg>