<svg xmlns="http://www.w3.org/2000/svg"  viewBox="0 0 256 256" width="1024px" height="1024px"><polygon fill="#afafaf" points="79.31,138.25 74.75,142.81 58.54,130.18 66.68,122.04"/><path fill="#f0c020" d="M36.064,88.557L25.062,99.567l-9.981-9.981c-1.579-1.579-1.579-4.145,0-5.723l5.278-5.278 c1.587-1.579,4.145-1.579,5.731,0L36.064,88.557z"/><polygon fill="#f0c020" points="44.8,97.3 33.8,108.3 57.11,131.61 58.54,130.18 66.68,122.04 68.11,120.61"/><path fill="#afafaf" d="M56.447,85.643L44.798,97.3l-11.001,11.001c-1.311,1.303-2.097,2.088-2.097,2.088 c-1.578,1.579-4.145,1.579-5.723,0l-3.011-3.011c-1.579-1.579-1.587-4.137,0-5.715l2.097-2.097l11.001-11.009l7.091-7.091 L15.728,54.039l10.281-10.281l30.438,30.438C59.612,77.362,59.612,82.478,56.447,85.643z"/><path fill="#f0c020" d="M36.064,88.557L25.062,99.567l-9.981-9.981c-1.579-1.579-1.579-4.145,0-5.723l5.278-5.278 c1.587-1.579,4.145-1.579,5.731,0L36.064,88.557z"/><path fill="#f0c020" d="M219.936,88.557l11.001,11.009l9.981-9.981c1.579-1.579,1.579-4.145,0-5.723l-5.278-5.278 c-1.587-1.579-4.145-1.579-5.731,0L219.936,88.557z"/><polygon fill="#f0c020" points="211.2,97.3 187.89,120.61 189.32,122.04 197.46,130.18 198.89,131.61 222.2,108.3"/><polygon fill="#afafaf" points="197.46,130.18 181.25,142.81 176.69,138.25 189.32,122.04"/><path fill="#afafaf" d="M199.553,85.643L211.202,97.3l11.001,11.001c1.311,1.303,2.097,2.088,2.097,2.088 c1.578,1.579,4.145,1.579,5.723,0l3.011-3.011c1.579-1.579,1.587-4.137,0-5.715l-2.097-2.097l-11.001-11.009l-7.091-7.091 l27.426-27.426l-10.281-10.281l-30.438,30.438C196.388,77.362,196.388,82.478,199.553,85.643z"/><path fill="#f0c020" d="M219.936,88.557l11.001,11.009l9.981-9.981c1.579-1.579,1.579-4.145,0-5.723l-5.278-5.278 c-1.587-1.579-4.145-1.579-5.731,0L219.936,88.557z"/><path d="M27.854,76.812c-2.553-2.541-6.706-2.541-9.262,0.004l-5.279,5.278c-2.552,2.553-2.552,6.706,0,9.258l8.214,8.213 l-0.325,0.325c-2.568,2.555-2.565,6.695-0.004,9.255l3.011,3.011c2.555,2.556,6.701,2.558,9.258,0.001l0.326-0.326l21.548,21.548 c0.9,0.901,2.362,1.006,3.392,0.117l14.478,11.281c0.994,0.774,2.41,0.69,3.305-0.205l4.558-4.558 c0.892-0.892,0.979-2.309,0.204-3.304l-11.281-14.479c0.844-0.982,0.812-2.458-0.119-3.389L48.33,97.296l9.885-9.885 c4.144-4.143,4.146-10.838,0-14.982L27.777,41.991c-0.976-0.977-2.56-0.977-3.535,0c-0.977,0.976-0.977,2.559,0,3.535 l30.438,30.438c2.19,2.19,2.192,5.718-0.001,7.911l-24.746,24.746c-0.582,0.582-1.604,0.582-2.188,0l-3.011-3.011 c-0.598-0.599-0.615-1.567,0-2.18c11.414-11.419,16.128-16.134,20.189-20.197c0.977-0.976,0.977-2.559,0-3.535L17.496,52.272 c-0.976-0.977-2.56-0.977-3.535,0c-0.977,0.976-0.977,2.559,0,3.535l25.658,25.659l-3.555,3.557L27.854,76.812z M37.333,108.301 l7.466-7.466l19.776,19.776l-7.466,7.465L37.333,108.301z M74.542,139.477l-12.232-9.531l4.135-4.135l9.53,12.232L74.542,139.477z M16.849,87.818c-0.603-0.603-0.603-1.585,0-2.188l5.274-5.274c0.609-0.605,1.596-0.605,2.2-0.004l8.206,8.206 c-7.669,7.675-5.917,5.922-7.467,7.472L16.849,87.818z"/><path d="M91.13,154.26c0.98-0.98,0.98-2.56,0-3.53c-0.97-0.98-2.55-0.98-3.53,0c-0.98,0.97-0.98,2.55,0,3.53 C88.594,155.254,90.199,155.211,91.13,154.26z"/><path d="M98.21,161.33c0.97-0.97,0.97-2.56,0-3.53c-0.98-0.98-2.56-0.98-3.54,0c-0.98,0.97-0.98,2.56,0,3.53 C95.635,162.296,97.228,162.311,98.21,161.33z"/><path d="M80.53,147.19c0.982,0.981,2.565,0.965,3.53,0c0.98-0.98,0.98-2.56,0-3.54c-0.97-0.97-2.56-0.97-3.53,0 C79.55,144.63,79.55,146.21,80.53,147.19z"/><path d="M224.689,52.6l7.07-7.07c1.017-1.039,0.932-2.608,0-3.54c-0.95-0.94-2.59-0.94-3.54,0l-7.07,7.07 c-0.97,0.98-0.97,2.56,0,3.54C222.127,53.577,223.716,53.574,224.689,52.6z"/><path d="M217.609,59.67c0.98-0.98,0.98-2.56,0.011-3.54c-0.95-0.94-2.601-0.94-3.54,0c-0.98,0.98-0.98,2.56,0,3.54 C215.071,60.661,216.674,60.625,217.609,59.67z"/><path d="M242.687,82.095l-5.283-5.283c-2.551-2.539-6.705-2.54-9.262,0.005l-8.207,8.208l-3.554-3.554l25.66-25.66 c0.943-0.944,1.004-2.515,0-3.54c-0.94-0.94-2.59-0.94-3.54,0L211.08,79.7c-0.972,0.95-0.997,2.556,0,3.53l20.189,20.2 c0.603,0.624,0.603,1.557,0,2.18l-3.02,3.01c-0.582,0.602-1.597,0.605-2.181,0l-0.01,0.01l-24.74-24.76 c-2.174-2.154-2.202-5.707,0-7.91l9.221-9.22c0.979-0.97,0.979-2.56,0-3.53c-0.94-0.95-2.57-0.95-3.521-0.02 c0,0.01-0.01,0.01-0.01,0.01l-9.22,9.23c-4.151,4.131-4.15,10.85,0,14.98l9.879,9.888l-21.547,21.547 c-0.931,0.931-0.964,2.407-0.119,3.389l-11.281,14.478c-0.775,0.995-0.688,2.413,0.204,3.305l4.559,4.558 c0.893,0.892,2.308,0.979,3.304,0.204l14.477-11.281c1.03,0.889,2.493,0.784,3.393-0.117l21.547-21.547 c0.233,0.23,0.308,0.302,0.325,0.325c2.548,2.527,6.684,2.553,9.26,0l3.01-3.01c2.579-2.601,2.534-6.726,0-9.26l-0.325-0.325 l8.212-8.211C245.238,88.8,245.238,84.647,242.687,82.095z M181.458,139.477l-1.435-1.435l9.531-12.231l4.135,4.135 L181.458,139.477z M198.891,128.077l-7.466-7.466l19.777-19.776l7.463,7.469L198.891,128.077z M239.151,87.818l-8.212,8.211 c-3.144-3.144-1.549-1.548-7.468-7.472l8.2-8.201c0.608-0.606,1.599-0.605,2.201-0.005l5.278,5.278 C239.754,86.233,239.754,87.215,239.151,87.818z"/><path d="M157.79,157.8c-0.971,0.97-0.971,2.56,0,3.53c0.964,0.963,2.556,0.983,3.54,0c0.979-0.97,0.979-2.56,0-3.53 C160.35,156.82,158.77,156.82,157.79,157.8z"/><path d="M171.939,143.65c-0.979,0.98-0.979,2.56,0,3.54c0.982,0.981,2.561,0.968,3.53,0c0.98-0.98,0.98-2.56,0-3.54 C174.5,142.68,172.91,142.68,171.939,143.65z"/><path d="M164.859,150.72c-0.97,0.98-0.97,2.56,0,3.54c0.976,0.976,2.569,0.973,3.54,0c0.98-0.98,0.98-2.56,0-3.54 C167.43,149.75,165.84,149.75,164.859,150.72z"/><path fill="#afafaf" d="M231.116,181.019v30.308c0,2.761-2.239,5-5,5h-195.8c-2.761,0-5-2.239-5-5v-30.308c0-2.761,2.239-5,5-5h70.478 l14.572,5.148l-6.83,14.35l14.36-6.82l5.32,14.97l5.32-14.97l14.36,6.82l-6.83-14.35l14.572-5.148h70.478 C228.877,176.019,231.116,178.258,231.116,181.019z"/><rect width="88.96" height="18.92" x="9.26" y="14.54" fill="#72c2e9"/><rect width="88.95" height="18.92" x="158.22" y="14.54" fill="#72c2e9"/><path fill="#efefef" d="M222.116,209.828h-58.632c-1.381,0-2.5-1.119-2.5-2.5s1.119-2.5,2.5-2.5h56.132v-5.74 c0-1.381,1.119-2.5,2.5-2.5s2.5,1.119,2.5,2.5v8.24C224.616,208.708,223.497,209.828,222.116,209.828z M92.947,209.828h-4 c-1.381,0-2.5-1.119-2.5-2.5s1.119-2.5,2.5-2.5h4c1.381,0,2.5,1.119,2.5,2.5S94.328,209.828,92.947,209.828z M78.947,209.828 H34.316c-1.381,0-2.5-1.119-2.5-2.5v-22.24c0-1.381,1.119-2.5,2.5-2.5s2.5,1.119,2.5,2.5v19.74h42.132c1.381,0,2.5,1.119,2.5,2.5 S80.328,209.828,78.947,209.828z M222.116,191.587c-1.381,0-2.5-1.119-2.5-2.5v-4c0-1.381,1.119-2.5,2.5-2.5s2.5,1.119,2.5,2.5v4 C224.616,190.468,223.497,191.587,222.116,191.587z"/><path fill="#72c2e9" d="M244.883,249.833H11.549c-2.761,0-5-2.239-5-5v-23.5c0-2.761,2.239-5,5-5h233.333c2.761,0,5,2.239,5,5v23.5 C249.883,247.594,247.644,249.833,244.883,249.833z"/><circle cx="128.216" cy="233.208" r="6.136" fill="#fff"/><circle cx="128.216" cy="233.208" r="6.136" fill="#fff"/><circle cx="128.216" cy="233.208" r="6.136" fill="#fff"/><circle cx="128.216" cy="233.208" r="6.136" fill="#fff"/><circle cx="128.216" cy="233.208" r="6.136" fill="#fff"/><circle cx="128.216" cy="233.208" r="6.136" fill="#fff"/><circle cx="128.216" cy="233.208" r="6.136" fill="#fff"/><circle cx="161.726" cy="233.208" r="6.136" fill="#fff"/><circle cx="195.236" cy="233.208" r="6.136" fill="#fff"/><circle cx="228.747" cy="233.208" r="6.136" fill="#fff"/><circle cx="94.706" cy="233.208" r="6.136" fill="#fff"/><circle cx="61.195" cy="233.208" r="6.136" fill="#fff"/><circle cx="27.685" cy="233.208" r="6.136" fill="#fff"/><path fill="#afafaf" d="M158.22,11.17v31.39l-11.7,19.331h-36.6L98.22,42.56V11.17c0-2.76,2.23-5,5-5h50 C155.98,6.17,158.22,8.41,158.22,11.17z"/><path fill="#efefef" d="M137.557,55.391h-13.683c-1.381,0-2.5-1.119-2.5-2.5s1.119-2.5,2.5-2.5h12.435l6.521-8.665V15.171 c0-1.381,1.119-2.5,2.5-2.5s2.5,1.119,2.5,2.5v27.39c0,0.542-0.177,1.07-0.502,1.503l-7.772,10.33 C139.083,55.022,138.342,55.391,137.557,55.391z M113.875,55.391h-2.772c-1.381,0-2.5-1.119-2.5-2.5s1.119-2.5,2.5-2.5h2.772 c1.381,0,2.5,1.119,2.5,2.5S115.255,55.391,113.875,55.391z"/><path fill="#afafaf" d="M151.796,66.891v4.84c0,1.657-1.343,3-3,3h-41.16c-1.657,0-3-1.343-3-3v-4.84c0-2.761,2.239-5,5-5h37.16 C149.557,61.891,151.796,64.13,151.796,66.891z"/><path fill="#fc5d3d" d="M155.638,176.019l-14.572-5.502l6.83-14.35l-8.01,3.8V82.67c3.13-1.96,5.72-4.7,7.53-7.94h-38.4 c1.81,3.24,4.4,5.98,7.53,7.94v77.298l-8.01-3.8l6.83,14.35l-14.572,5.502l14.572,5.148l-6.83,14.35l14.36-6.82l5.32,14.97 l5.32-14.97l14.36,6.82l-6.83-14.35L155.638,176.019z"/><path fill="#ffcbc3" d="M128.216,136.958c-1.381,0-2.5-1.119-2.5-2.5v-2.417c0-1.381,1.119-2.5,2.5-2.5c1.381,0,2.5,1.119,2.5,2.5 v2.417C130.716,135.838,129.597,136.958,128.216,136.958z M128.216,124.541c-1.381,0-2.5-1.119-2.5-2.5v-27 c0-1.381,1.119-2.5,2.5-2.5c1.381,0,2.5,1.119,2.5,2.5v27C130.716,123.422,129.597,124.541,128.216,124.541z"/><path d="M27.686,224.571c-4.763,0-8.637,3.874-8.637,8.636s3.874,8.636,8.637,8.636s8.637-3.874,8.637-8.636 S32.448,224.571,27.686,224.571z M27.686,236.844c-2.005,0-3.637-1.631-3.637-3.636s1.632-3.636,3.637-3.636 s3.637,1.631,3.637,3.636S29.691,236.844,27.686,236.844z"/><path d="M61.195,224.571c-4.762,0-8.636,3.874-8.636,8.636s3.874,8.636,8.636,8.636c4.763,0,8.637-3.874,8.637-8.636 S65.958,224.571,61.195,224.571z M61.195,236.844c-2.005,0-3.636-1.631-3.636-3.636s1.631-3.636,3.636-3.636 s3.637,1.631,3.637,3.636S63.2,236.844,61.195,236.844z"/><path d="M94.706,224.571c-4.763,0-8.637,3.874-8.637,8.636s3.874,8.636,8.637,8.636c4.762,0,8.636-3.874,8.636-8.636 S99.468,224.571,94.706,224.571z M94.706,236.844c-2.005,0-3.637-1.631-3.637-3.636s1.632-3.636,3.637-3.636 s3.636,1.631,3.636,3.636S96.711,236.844,94.706,236.844z"/><path d="M128.216,224.571c-4.763,0-8.637,3.874-8.637,8.636s3.874,8.636,8.637,8.636c4.763,0,8.637-3.874,8.637-8.636 S132.979,224.571,128.216,224.571z M128.216,236.844c-2.005,0-3.637-1.631-3.637-3.636s1.632-3.636,3.637-3.636 c2.005,0,3.637,1.631,3.637,3.636S130.221,236.844,128.216,236.844z"/><path d="M161.726,224.571c-4.762,0-8.636,3.874-8.636,8.636s3.874,8.636,8.636,8.636c4.763,0,8.637-3.874,8.637-8.636 S166.488,224.571,161.726,224.571z M161.726,236.844c-2.005,0-3.636-1.631-3.636-3.636s1.631-3.636,3.636-3.636 s3.637,1.631,3.637,3.636S163.731,236.844,161.726,236.844z"/><path d="M195.236,224.571c-4.763,0-8.637,3.874-8.637,8.636s3.874,8.636,8.637,8.636c4.762,0,8.636-3.874,8.636-8.636 S199.998,224.571,195.236,224.571z M195.236,236.844c-2.005,0-3.637-1.631-3.637-3.636s1.632-3.636,3.637-3.636 s3.636,1.631,3.636,3.636S197.241,236.844,195.236,236.844z"/><path d="M228.746,224.571c-4.763,0-8.637,3.874-8.637,8.636s3.874,8.636,8.637,8.636s8.637-3.874,8.637-8.636 S233.509,224.571,228.746,224.571z M228.746,236.844c-2.005,0-3.637-1.631-3.637-3.636s1.632-3.636,3.637-3.636 s3.637,1.631,3.637,3.636S230.751,236.844,228.746,236.844z"/><path d="M244.883,213.833h-11.707c0.28-0.784,0.44-1.624,0.44-2.502v-30.31c0-4.13-3.369-7.5-7.5-7.5h-20.479 c-1.38,0-2.5,1.12-2.5,2.5c0,1.38,1.12,2.5,2.5,2.5h20.479c1.381,0,2.5,1.12,2.5,2.5v30.31c0,1.37-1.119,2.5-2.5,2.5h-195.8 c-1.38,0-2.5-1.13-2.5-2.5v-30.31c0-1.38,1.12-2.5,2.5-2.5h70.052l11.549,4.083l-5.638,11.844c-1.01,2.124,1.218,4.337,3.329,3.333 l11.86-5.631l4.393,12.36c0.787,2.213,3.925,2.209,4.711,0l4.393-12.36l11.86,5.631c2.111,1.004,4.339-1.209,3.329-3.333 l-5.638-11.844l11.549-4.083h29.571c1.38,0,2.5-1.12,2.5-2.5c0-1.38-1.12-2.5-2.5-2.5h-29.541l-11.604-4.378l5.662-11.896 c1.006-2.115-1.206-4.338-3.329-3.333l-4.438,2.107V84.001c2.552-1.809,4.749-4.115,6.447-6.771 c3.015-0.02,5.463-2.478,5.463-5.498v-4.84c0-2.833-1.579-5.303-3.903-6.578l9.961-16.457c0.191-0.316,0.361-0.856,0.361-1.294 V35.96h16.5c1.38,0,2.5-1.12,2.5-2.5c0-1.37-1.12-2.5-2.5-2.5h-16.5V17.041h86.5c1.381,0,2.5-1.119,2.5-2.5s-1.119-2.5-2.5-2.5 h-86.5v-0.87c0-4.136-3.364-7.5-7.5-7.5h-50c-4.136,0-7.5,3.364-7.5,7.5v0.87h-86.5c-1.381,0-2.5,1.119-2.5,2.5s1.119,2.5,2.5,2.5 h86.5v13.923h-86.5c-1.381,0-2.5,1.119-2.5,2.5s1.119,2.5,2.5,2.5h86.5v6.597c0,0.442,0.172,0.981,0.361,1.294l9.961,16.457 c-2.324,1.276-3.903,3.745-3.903,6.578v4.84c0,3.02,2.448,5.478,5.463,5.498c1.702,2.661,3.901,4.969,6.447,6.772V99.97 c0,1.38,1.12,2.5,2.5,2.5s2.5-1.12,2.5-2.5V86.744c2.889,1.177,5.994,1.802,9.17,1.802c3.178,0,6.285-0.626,9.17-1.8v71.648 l-2.422,1.15l-4.393-12.36c-0.787-2.213-3.925-2.209-4.711,0l-4.393,12.36l-2.422-1.15V119.97c0-1.38-1.12-2.5-2.5-2.5 s-2.5,1.12-2.5,2.5v36.05l-4.438-2.107c-2.112-1.006-4.338,1.212-3.329,3.333l5.662,11.896l-11.604,4.378H30.316 c-4.13,0-7.5,3.37-7.5,7.5v30.31c0,0.878,0.16,1.718,0.44,2.502H11.549c-4.136,0-7.5,3.364-7.5,7.5v23.5c0,4.136,3.364,7.5,7.5,7.5 h233.334c4.136,0,7.5-3.364,7.5-7.5v-23.5C252.383,217.197,249.019,213.833,244.883,213.833z M107.636,72.231 c-0.275,0-0.5-0.224-0.5-0.5v-4.84c0-1.378,1.121-2.5,2.5-2.5c4.353,0,33.19,0,37.16,0c1.379,0,2.5,1.122,2.5,2.5v4.84 c0,0.276-0.225,0.5-0.5,0.5C135.058,72.231,121.338,72.231,107.636,72.231z M100.716,11.171c0-1.378,1.121-2.5,2.5-2.5h50 c1.379,0,2.5,1.122,2.5,2.5v28.89h-55V11.171z M153.78,45.062l-8.674,14.33h-33.781l-8.674-14.33H153.78z M113.883,77.231h28.665 c-3.463,3.772-8.548,6.314-14.332,6.314C122.559,83.545,117.428,81.094,113.883,77.231z M116.249,172.86 c1.365-0.514,2.004-2.089,1.375-3.413l-3.811-8.005l8.008,3.807c1.344,0.638,2.937-0.031,3.43-1.42l2.965-8.342l2.965,8.342 c0.493,1.391,2.087,2.058,3.43,1.42l8.008-3.807l-3.811,8.005c-0.628,1.323,0.009,2.898,1.375,3.413l8.171,3.083l-8.121,2.872 c-1.391,0.491-2.064,2.084-1.425,3.431l3.811,8.005l-8.008-3.807c-1.345-0.638-2.937,0.031-3.43,1.42l-2.965,8.342l-2.965-8.342 c-0.494-1.394-2.089-2.056-3.43-1.42l-8.008,3.807l3.811-8.005c0.64-1.348-0.036-2.941-1.425-3.431l-8.121-2.872L116.249,172.86z M247.383,244.833c0,1.378-1.121,2.5-2.5,2.5H11.549c-1.379,0-2.5-1.122-2.5-2.5v-23.5c0-1.378,1.121-2.5,2.5-2.5h233.334 c1.379,0,2.5,1.122,2.5,2.5V244.833z"/><path d="M41.383,24.4v-0.795c0-1.381-1.119-2.5-2.5-2.5s-2.5,1.119-2.5,2.5V24.4c0,1.381,1.119,2.5,2.5,2.5 S41.383,25.781,41.383,24.4z"/><path d="M26.549,24.4v-0.795c0-1.381-1.119-2.5-2.5-2.5s-2.5,1.119-2.5,2.5V24.4c0,1.381,1.119,2.5,2.5,2.5 S26.549,25.781,26.549,24.4z"/><path d="M56.216,24.4v-0.795c0-1.381-1.119-2.5-2.5-2.5s-2.5,1.119-2.5,2.5V24.4c0,1.381,1.119,2.5,2.5,2.5 S56.216,25.781,56.216,24.4z"/><path d="M71.049,24.4v-0.795c0-1.381-1.119-2.5-2.5-2.5s-2.5,1.119-2.5,2.5V24.4c0,1.381,1.119,2.5,2.5,2.5 S71.049,25.781,71.049,24.4z"/><path d="M85.883,24.4v-0.795c0-1.381-1.119-2.5-2.5-2.5s-2.5,1.119-2.5,2.5V24.4c0,1.381,1.119,2.5,2.5,2.5 S85.883,25.781,85.883,24.4z"/><path d="M220.049,24.4v-0.795c0-1.381-1.119-2.5-2.5-2.5s-2.5,1.119-2.5,2.5V24.4c0,1.381,1.119,2.5,2.5,2.5 S220.049,25.781,220.049,24.4z"/><path d="M234.883,24.4v-0.795c0-1.381-1.119-2.5-2.5-2.5s-2.5,1.119-2.5,2.5V24.4c0,1.381,1.119,2.5,2.5,2.5 S234.883,25.781,234.883,24.4z"/><path d="M205.216,24.4v-0.795c0-1.381-1.119-2.5-2.5-2.5s-2.5,1.119-2.5,2.5V24.4c0,1.381,1.119,2.5,2.5,2.5 S205.216,25.781,205.216,24.4z"/><path d="M190.383,23.605c0-1.381-1.119-2.5-2.5-2.5s-2.5,1.119-2.5,2.5V24.4c0,1.381,1.119,2.5,2.5,2.5s2.5-1.119,2.5-2.5V23.605z"/><path d="M170.549,23.605V24.4c0,1.381,1.119,2.5,2.5,2.5s2.5-1.119,2.5-2.5v-0.795c0-1.381-1.119-2.5-2.5-2.5 S170.549,22.224,170.549,23.605z"/><path d="M249.716,33.46c0-1.37-1.12-2.5-2.5-2.5h-50c-1.38,0-2.5,1.13-2.5,2.5c0,1.38,1.12,2.5,2.5,2.5h50 C248.596,35.96,249.716,34.84,249.716,33.46z"/><circle cx="187.216" cy="33.46" r="2.5"/><circle cx="195.636" cy="176.02" r="2.5"/><circle cx="116.546" cy="109.97" r="2.5"/></svg>