<svg xmlns="http://www.w3.org/2000/svg"  viewBox="0 0 128 128" width="1024px" height="1024px"><path fill="#e6e7e8" d="M121.019,21.031H11.463c-1.92,0-3.481,1.562-3.481,3.481v83.457c0,1.92,1.562,3.481,3.481,3.481h109.556 c1.92,0,3.481-1.562,3.481-3.481V24.512C124.5,22.592,122.938,21.031,121.019,21.031z"/><path fill="#6dc9f7" d="M116.377,17.549H6.821c-1.282,0-2.321,1.039-2.321,2.321v83.457c0,1.282,1.039,2.321,2.321,2.321h109.556 c1.282,0,2.321-1.039,2.321-2.321V19.87C118.698,18.589,117.658,17.549,116.377,17.549z"/><path fill="#fa759e" d="M60.537,39.673H26.266c-1.923,0-3.482,1.559-3.482,3.482v34.272c0,1.923,1.559,3.482,3.482,3.482h34.272 c1.923,0,3.482-1.559,3.482-3.482V43.154C64.019,41.232,62.46,39.673,60.537,39.673z"/><path fill="#fff" d="M26.265,77.426V43.154c0-1.923,1.559-3.481,3.481-3.481h-3.481c-1.923,0-3.481,1.559-3.481,3.481v34.272 c0,1.923,1.559,3.481,3.481,3.481h3.481C27.824,80.907,26.265,79.349,26.265,77.426z"/><path fill="#ffd7e5" d="M53.991,47.549H32.812c-1.188,0-2.151,0.963-2.151,2.151v21.179c0,1.188,0.963,2.151,2.151,2.151h21.179 c1.188,0,2.151-0.963,2.151-2.151V49.701C56.142,48.513,55.179,47.549,53.991,47.549z"/><g><path fill="#3a2c60" d="M116.376,16.549h-49.46c-0.552,0-1,0.448-1,1s0.448,1,1,1h49.46c0.729,0,1.321,0.592,1.321,1.321v7.667 h-17.95c-0.672,0-1.293,0.304-1.706,0.834l-6.611,8.499H81.347c-0.477-2.771-2.892-4.889-5.798-4.889 c-3.247,0-5.889,2.642-5.889,5.889s2.642,5.889,5.889,5.889c2.906,0,5.321-2.118,5.798-4.889H91.92c0.309,0,0.6-0.143,0.79-0.386 l6.911-8.885c0.03-0.039,0.077-0.062,0.126-0.062h17.95v11.062h-12.576c-0.662,0-1.299,0.312-1.706,0.834l-6.562,8.437 c-0.031,0.04-0.077,0.062-0.126,0.062h-9.326c-0.552,0-1,0.448-1,1s0.448,1,1,1h9.326c0.672,0,1.293-0.304,1.706-0.834 l6.562-8.437c0.03-0.039,0.078-0.062,0.126-0.062h12.576v12.025h-10.255c-0.671,0-1.292,0.304-1.706,0.834l-6.562,8.437 c-0.031,0.04-0.077,0.062-0.127,0.062H87.401c-0.552,0-1,0.448-1,1s0.448,1,1,1h11.647c0.671,0,1.292-0.304,1.706-0.834 l6.562-8.437c0.031-0.04,0.077-0.062,0.127-0.062h10.255v18.617h-10.822c-0.309,0-0.6,0.143-0.79,0.386l-6.91,8.884 c-0.031,0.04-0.077,0.063-0.127,0.063H71.821c-1.191,0-2.16,0.969-2.16,2.16v10.025c0,0.088-0.072,0.161-0.161,0.161H35.475 c-1.191,0-2.16,0.969-2.16,2.16v5.568H17.142v-9.277c2.771-0.477,4.889-2.892,4.889-5.797c0-3.247-2.642-5.889-5.889-5.889 s-5.889,2.642-5.889,5.889c0,2.906,2.118,5.32,4.889,5.797v9.277H6.821c-0.729,0-1.321-0.592-1.321-1.321V28.994h9.734 c0.477,2.772,2.892,4.889,5.797,4.889c3.247,0,5.889-2.642,5.889-5.889s-2.642-5.889-5.889-5.889 c-2.906,0-5.32,2.117-5.797,4.889H5.5V19.87c0-0.729,0.592-1.321,1.321-1.321h43.581c0.552,0,1-0.448,1-1s-0.448-1-1-1H6.821 c-1.831,0-3.321,1.49-3.321,3.321v83.457c0,1.831,1.49,3.321,3.321,3.321h109.556c1.831,0,3.321-1.49,3.321-3.321V19.87 C119.697,18.039,118.208,16.549,116.376,16.549z M75.549,41.759c-2.144,0-3.889-1.745-3.889-3.889 c0-2.144,1.745-3.889,3.889-3.889c2.145,0,3.889,1.745,3.889,3.889C79.438,40.015,77.694,41.759,75.549,41.759z M12.253,89.574 c0-2.145,1.745-3.889,3.889-3.889c2.144,0,3.889,1.745,3.889,3.889c0,2.144-1.745,3.889-3.889,3.889 C13.998,93.463,12.253,91.718,12.253,89.574z M21.031,24.105c2.145,0,3.889,1.745,3.889,3.889c0,2.145-1.745,3.889-3.889,3.889 c-2.144,0-3.889-1.745-3.889-3.889C17.142,25.85,18.887,24.105,21.031,24.105z M116.376,104.648H35.315V99.08 c0-0.088,0.072-0.16,0.16-0.16H69.5c1.191,0,2.161-0.969,2.161-2.161V86.734c0-0.088,0.072-0.16,0.16-0.16h27.228 c0.671,0,1.292-0.304,1.706-0.834l6.61-8.499h10.333v17.605H91.124c-0.477-2.772-2.892-4.889-5.797-4.889 c-3.247,0-5.889,2.642-5.889,5.889s2.642,5.889,5.889,5.889c2.906,0,5.32-2.117,5.797-4.889h26.573v6.481 C117.697,104.056,117.105,104.648,116.376,104.648z M89.216,95.846c0,2.144-1.745,3.889-3.889,3.889s-3.889-1.745-3.889-3.889 c0-2.145,1.745-3.889,3.889-3.889S89.216,93.701,89.216,95.846z"/><path fill="#3a2c60" d="M55.611,18.549h6.59c0.552,0,1-0.448,1-1s-0.448-1-1-1h-6.59c-0.552,0-1,0.448-1,1 S55.059,18.549,55.611,18.549z"/><path fill="#3a2c60" d="M44.401,38.673v-8.605c0-0.552-0.448-1-1-1s-1,0.448-1,1v8.605h-7.086v-8.605c0-0.552-0.448-1-1-1 s-1,0.448-1,1v8.605h-7.049c-2.471,0-4.481,2.01-4.481,4.481v7.049h-8.605c-0.552,0-1,0.448-1,1s0.448,1,1,1h8.605v7.086h-8.605 c-0.552,0-1,0.448-1,1s0.448,1,1,1h8.605v7.086h-8.605c-0.552,0-1,0.448-1,1s0.448,1,1,1h8.605v7.049 c0,2.471,2.01,4.481,4.481,4.481h7.049v8.605c0,0.552,0.448,1,1,1s1-0.448,1-1v-8.605h7.086v8.605c0,0.552,0.448,1,1,1 s1-0.448,1-1v-8.605h7.086v8.605c0,0.552,0.448,1,1,1s1-0.448,1-1v-8.605h7.049c2.471,0,4.481-2.01,4.481-4.481v-7.049h8.605 c0.552,0,1-0.448,1-1s-0.448-1-1-1h-8.605V61.29h8.605c0.552,0,1-0.448,1-1s-0.448-1-1-1h-8.605v-7.086h8.605 c0.552,0,1-0.448,1-1s-0.448-1-1-1h-8.605v-7.049c0-2.471-2.01-4.481-4.481-4.481h-7.049v-8.605c0-0.552-0.448-1-1-1 s-1,0.448-1,1v8.605H44.401z M63.019,43.154v34.271c0,1.368-1.113,2.481-2.481,2.481H26.266c-1.368,0-2.481-1.113-2.481-2.481 V43.154c0-1.368,1.113-2.481,2.481-2.481h34.271C61.905,40.673,63.019,41.786,63.019,43.154z"/></g></svg>