<svg xmlns="http://www.w3.org/2000/svg"  viewBox="0 0 512 512" width="1024px" height="1024px"><path fill="#95a5a5" d="M91,137.06c12.25,20.34,34.53,33.94,60,33.94c31.71,0,58.48-21.09,67.08-50h5.84 c8.6,28.91,35.37,50,67.08,50s58.48-21.09,67.08-50H361v50v100v50h-40H131H91v-30v-70V137.06z"/><path fill="#7e8c8d" d="M298.75,181c27.134,0,50.64-15.449,62.25-38.019V121h-2.92c-8.6,28.91-35.37,50-67.08,50 c-20.259,0-38.492-8.617-51.268-22.374C252.158,168.089,273.941,181,298.75,181z"/><path fill="#7e8c8d" d="M98.75,301v-70v-83.431c-2.895-3.247-5.494-6.762-7.75-10.509V221v70v30h7.75V301z"/><path fill="#7e8c8d" d="M158.75,181c31.71,0,58.48-21.09,67.08-50h1.935c-1.523-3.208-2.817-6.546-3.845-10h-5.84 c-8.6,28.91-35.37,50-67.08,50c-20.25,0-38.477-8.602-51.256-22.348C112.181,168.105,133.952,181,158.75,181z"/><rect width="50" height="70" x="41" y="221" fill="#2f4a5f"/><polygon fill="#1f3442" points="51,231 91,231 91,221 41,221 41,291 51,291"/><polygon fill="#fcd884" points="321,321 321,361 271,361 231,361 191,361 131,361 131,321"/><polygon fill="#eabf6a" points="140.167,330.666 321,330.666 321,321 131,321 131,361 140.167,361"/><rect width="190" height="50" x="131" y="231" fill="#f2786b"/><polygon fill="#db6257" points="139.75,241 321,241 321,231 131,231 131,281 139.75,281"/><polygon fill="#2f4a5f" points="471,121 471,321 361,271 361,171"/><polygon fill="#1f3442" points="370.25,178.25 471,132.454 471,121 361,171 361,271 370.25,275.203"/><path fill="#2f4a5f" d="M311,101c0,1.99-0.29,3.9-0.83,5.71C307.71,114.97,300.06,121,291,121s-16.71-6.03-19.17-14.29 c-0.54-1.81-0.83-3.72-0.83-5.71c0-11.05,8.95-20,20-20S311,89.95,311,101z"/><path fill="#1f3442" d="M277.667,110.912c0-11.05,8.95-20,20-20c4.734,0,9.076,1.652,12.501,4.399 C307.718,87.037,300.072,81,291,81c-11.05,0-20,8.95-20,20c0,1.99,0.29,3.9,0.83,5.71c1.173,3.938,3.534,7.357,6.656,9.87 C277.954,114.782,277.667,112.887,277.667,110.912z"/><path fill="#fcd884" d="M361,101c0,6.95-1.03,13.66-2.92,20c-8.6,28.91-35.37,50-67.08,50s-58.48-21.09-67.08-50 c-1.89-6.34-2.92-13.05-2.92-20c0-38.66,31.34-70,70-70S361,62.339,361,101z M310.17,106.709c0.54-1.81,0.83-3.72,0.83-5.71 c0-11.05-8.95-20-20-20s-20,8.95-20,20c0,1.99,0.29,3.9,0.83,5.71C274.29,114.97,281.94,121,291,121S307.71,114.97,310.17,106.709 z"/><path fill="#eabf6a" d="M299.833,129.833c9.06,0,16.71-6.03,19.17-14.29c0.54-1.81,0.83-3.72,0.83-5.71 c0-7.805-4.476-14.545-10.992-17.841C310.211,94.701,311,97.755,311,101c0,1.99-0.29,3.9-0.83,5.71 C307.71,114.97,300.06,121,291,121c-3.244,0-6.301-0.784-9.01-2.156C285.288,125.358,292.033,129.833,299.833,129.833z"/><path fill="#eabf6a" d="M232.753,129.833c-1.89-6.34-2.92-13.05-2.92-20c0-38.66,31.34-70,70-70 c17.081,0,32.727,6.125,44.878,16.289C331.87,40.77,312.579,31,291,31c-38.66,0-70,31.34-70,70c0,6.95,1.03,13.66,2.92,20 c3.969,13.343,11.815,25.014,22.226,33.72C240.115,147.51,235.502,139.074,232.753,129.833z"/><path fill="#2f4a5f" d="M171,101c0,1.99-0.29,3.9-0.83,5.71C167.71,114.97,160.06,121,151,121s-16.71-6.03-19.17-14.29 c-0.54-1.81-0.83-3.72-0.83-5.71c0-11.05,8.95-20,20-20S171,89.95,171,101z"/><path fill="#1f3442" d="M139.83,115.709c-0.54-1.81-0.83-3.72-0.83-5.71c0-11.05,8.95-20,20-20 c3.754,0,7.253,1.052,10.254,2.85C166.133,85.869,159.144,81,151,81c-11.05,0-20,8.95-20,20c0,1.99,0.29,3.9,0.83,5.71 c1.442,4.843,4.677,8.907,8.926,11.451C140.4,117.367,140.082,116.553,139.83,115.709z"/><path fill="#fcd884" d="M221,101c0,6.95-1.03,13.66-2.92,20c-8.6,28.91-35.37,50-67.08,50c-25.47,0-47.75-13.6-60-33.94 c-6.34-10.53-10-22.87-10-36.06c0-38.66,31.34-70,70-70S221,62.339,221,101z M170.17,106.709c0.54-1.81,0.83-3.72,0.83-5.71 c0-11.05-8.95-20-20-20s-20,8.95-20,20c0,1.99,0.29,3.9,0.83,5.71C134.29,114.97,141.94,121,151,121S167.71,114.97,170.17,106.709 z"/><path fill="#eabf6a" d="M161,130c9.06,0,16.71-6.03,19.17-14.29c0.54-1.81,0.83-3.72,0.83-5.71 c0-8.355-5.121-15.502-12.394-18.495C170.132,94.33,171,97.563,171,101c0,1.99-0.29,3.9-0.83,5.71 C167.71,114.97,160.06,121,151,121c-2.687,0-5.243-0.541-7.583-1.502C146.8,125.745,153.396,130,161,130z"/><path fill="#eabf6a" d="M101,146.06c-6.34-10.53-10-22.87-10-36.06c0-38.66,31.34-70,70-70 c15.579,0,29.965,5.095,41.595,13.702C189.798,39.75,171.423,31,151,31c-38.66,0-70,31.34-70,70c0,13.19,3.66,25.53,10,36.06 c4.759,7.901,11.036,14.778,18.42,20.244C106.257,153.854,103.429,150.092,101,146.06z"/><rect width="20" height="20" x="291" y="191"/><rect width="20" height="20" x="261" y="191"/><rect width="20" height="20" x="231" y="191"/><rect width="20" height="20" x="201" y="191"/><rect width="20" height="20" x="171" y="191"/><rect width="20" height="20" x="141" y="191"/><path d="M91,296H41c-2.761,0-5-2.238-5-5v-70c0-2.761,2.239-5,5-5h50c2.761,0,5,2.239,5,5s-2.239,5-5,5H46v60h45 c2.761,0,5,2.238,5,5S93.761,296,91,296z"/><path d="M471,326c-0.703,0-1.409-0.148-2.069-0.449l-110-50c-2.514-1.143-3.625-4.105-2.482-6.621 c1.144-2.514,4.106-3.623,6.621-2.482L466,313.234v-184.47l-102.931,46.787c-2.513,1.143-5.479,0.032-6.621-2.483 c-1.143-2.514-0.031-5.478,2.482-6.621l110-50c1.547-0.704,3.346-0.574,4.776,0.348c1.43,0.92,2.293,2.504,2.293,4.204v200 c0,1.699-0.863,3.283-2.293,4.203C472.887,325.73,471.945,326,471,326z"/><path d="M321,286H131c-2.761,0-5-2.238-5-5v-50c0-2.761,2.239-5,5-5h190c2.762,0,5,2.239,5,5v50C326,283.762,323.762,286,321,286z M136,276h180v-40H136V276z"/><path d="M321,366H131c-2.761,0-5-2.238-5-5v-40c0-2.762,2.239-5,5-5s5,2.238,5,5v35h180v-35c0-2.762,2.238-5,5-5s5,2.238,5,5v40 C326,363.762,323.762,366,321,366z"/><path d="M130.996,486c-0.751,0-1.514-0.17-2.232-0.529c-2.47-1.234-3.471-4.238-2.236-6.707l60-120 c1.234-2.471,4.237-3.473,6.708-2.236c2.47,1.234,3.471,4.238,2.236,6.709l-60,120C134.596,484.988,132.83,486,130.996,486z"/><path d="M331.004,486c-1.834,0-3.6-1.012-4.476-2.764l-60-120c-1.235-2.471-0.234-5.475,2.235-6.709 c2.471-1.236,5.474-0.234,6.708,2.236l60,120c1.235,2.469,0.234,5.473-2.235,6.707C332.519,485.83,331.755,486,331.004,486z"/><path d="M231,486c-2.761,0-5-2.238-5-5V361c0-2.762,2.239-5,5-5s5,2.238,5,5v120C236,483.762,233.761,486,231,486z"/><path d="M361,326H91c-2.761,0-5-2.238-5-5V137.06c0-2.761,2.239-5,5-5s5,2.239,5,5V316h260V125.548 c-1.723-0.79-2.92-2.529-2.92-4.548c0-2.761,2.238-5,5-5H361c2.762,0,5,2.239,5,5v200C366,323.762,363.762,326,361,326z"/><path d="M223.92,126h-5.84c-2.761,0-5-2.239-5-5s2.239-5,5-5h5.84c2.761,0,5,2.239,5,5S226.681,126,223.92,126z"/><path d="M151,176c-26.54,0-50.571-13.593-64.283-36.36C79.706,127.994,76,114.633,76,101c0-41.355,33.645-75,75-75 s75,33.645,75,75c0,7.256-1.053,14.466-3.128,21.429c-4.51,15.161-13.974,28.799-26.646,38.398 C183.121,170.753,167.482,176,151,176z M151,36c-35.841,0-65,29.159-65,65c0,11.816,3.21,23.394,9.284,33.481 C107.17,154.216,127.999,166,151,166c28.542,0,54.156-19.091,62.288-46.426c1.8-6.038,2.712-12.286,2.712-18.574 C216,65.158,186.841,36,151,36z"/><path d="M291,176c-16.482,0-32.121-5.247-45.225-15.173c-12.673-9.6-22.136-23.237-26.647-38.401 C217.053,115.465,216,108.256,216,101c0-41.355,33.645-75,75-75c41.355,0,75,33.645,75,75c0,7.254-1.053,14.464-3.128,21.428 c-4.51,15.161-13.974,28.799-26.646,38.399C323.121,170.753,307.482,176,291,176z M291,36c-35.841,0-65,29.159-65,65 c0,6.288,0.912,12.537,2.711,18.571C236.844,146.909,262.457,166,291,166s54.156-19.091,62.288-46.426 c1.8-6.039,2.712-12.288,2.712-18.574C356,65.158,326.841,36,291,36z"/><path d="M291,126c-10.977,0-20.83-7.346-23.962-17.863C266.35,105.829,266,103.427,266,101c0-13.785,11.215-25,25-25 s25,11.215,25,25c0,2.427-0.35,4.829-1.039,7.14C311.83,118.654,301.977,126,291,126z M291,86c-8.271,0-15,6.729-15,15 c0,1.458,0.209,2.898,0.621,4.28c1.88,6.313,7.793,10.72,14.379,10.72s12.499-4.407,14.378-10.717 c0.413-1.384,0.622-2.824,0.622-4.283C306,92.729,299.271,86,291,86z"/><path d="M151,126c-10.976,0-20.83-7.346-23.962-17.863C126.35,105.829,126,103.427,126,101c0-13.785,11.215-25,25-25 s25,11.215,25,25c0,2.427-0.35,4.829-1.039,7.14C171.83,118.654,161.976,126,151,126z M151,86c-8.271,0-15,6.729-15,15 c0,1.458,0.209,2.898,0.622,4.28c1.88,6.313,7.792,10.72,14.378,10.72s12.499-4.407,14.378-10.717 c0.413-1.384,0.622-2.824,0.622-4.283C166,92.729,159.271,86,151,86z"/></svg>