<svg xmlns="http://www.w3.org/2000/svg"  viewBox="0 0 100 100" width="1024px" height="1024px"><rect width="69.895" height="60.876" x="15.053" y="24.072" fill="#aeaeae"/><path d="M86.075,86.075h-72.15V22.944h72.15V86.075z M16.18,83.82h67.64V25.199H16.18V83.82z"/><rect width="60.876" height="9.019" x="15.053" y="15.053" fill="#7f7f7f"/><path d="M77.056,25.199H13.925V13.925h63.131V25.199z M16.18,22.944h58.621V16.18H16.18V22.944z"/><rect width="9.019" height="9.019" x="75.928" y="15.053" fill="#f65555"/><path d="M86.075,25.199H74.801V13.925h11.273V25.199z M77.056,22.944h6.764V16.18h-6.764V22.944z"/><path d="M27.453,20.69v-2.255h2.255v2.255C27.453,20.69,29.708,20.69,27.453,20.69z M22.944,20.69v-2.255h2.255v2.255 C22.944,20.69,25.199,20.69,22.944,20.69z M18.435,20.69v-2.255h2.254v2.255C18.435,20.69,20.689,20.69,18.435,20.69z"/><path d="M18.435,80.438v-2.255h2.254v2.255C18.435,80.438,20.689,80.438,18.435,80.438z M18.435,75.929v-2.254h2.254v2.254 C18.435,75.929,20.689,75.929,18.435,75.929z M18.435,71.42v-2.255h2.254v2.255C18.435,71.42,20.689,71.42,18.435,71.42z M18.435,66.91v-2.254h2.254v2.254C18.435,66.91,20.689,66.91,18.435,66.91z M18.435,62.401v-2.255h2.254v2.255 C18.435,62.401,20.689,62.401,18.435,62.401z M18.435,57.892v-2.255h2.254v2.255C18.435,57.892,20.689,57.892,18.435,57.892z M18.435,53.382v-2.254h2.254v2.254C18.435,53.382,20.689,53.382,18.435,53.382z"/><rect width="11.273" height="2.255" x="22.944" y="78.183"/><path d="M34.217,75.929h-4.509v-2.254h4.509V75.929z M27.453,75.929h-4.509v-2.254h4.509V75.929z"/><path d="M38.726,71.42h-4.509v-2.255h4.509V71.42z M31.962,71.42h-9.018v-2.255h9.018V71.42z"/><rect width="15.782" height="2.254" x="22.944" y="64.656"/><g><rect width="11.273" height="2.255" x="22.944" y="60.146"/><path d="M38.726,57.892h-9.018v-2.255h9.018V57.892z M27.453,57.892h-4.509v-2.255h4.509V57.892z"/><rect width="15.782" height="2.254" x="22.944" y="51.128"/></g><g><polygon fill="#fff" points="73.99,52.255 80.438,52.255 80.438,79.311 44.363,79.311 44.363,52.255 56.764,52.255"/><polygon points="81.565,80.438 43.236,80.438 43.236,51.128 57.891,51.128 57.891,53.382 45.491,53.382 45.491,78.183 79.311,78.183 79.311,53.382 72.863,53.382 72.863,51.128 81.565,51.128"/></g><g><polygon fill="#fff" points="71.861,69.102 71.049,66.38 73.682,67.22"/><polygon points="71.103,70.504 69.359,64.659 75.098,66.488 74.414,68.636 72.74,68.102 73.264,69.859"/><g><rect width="2.254" height="4.59" x="72.862" y="67.124" transform="rotate(-44.064 73.984 69.415)"/></g></g><g><path fill="#f9ec9a" d="M59.212,66.113l-4.783-4.783l4.414-4.413c0.278-0.279,0.631-0.437,0.995-0.475 c0.477-0.05,0.972,0.108,1.338,0.475l2.45,2.449c0.644,0.645,0.644,1.689,0,2.334L59.212,66.113z"/><path d="M59.212,67.707l-6.377-6.378l3.986-3.985c0.851-0.852,1.984-1.321,3.188-1.321c1.204,0,2.337,0.469,3.188,1.321 c1.758,1.758,1.758,4.62,0,6.378L59.212,67.707z M56.023,61.33l3.189,3.19l2.392-2.391c0.878-0.88,0.878-2.31,0-3.189 c-0.853-0.852-2.337-0.852-3.189,0L56.023,61.33z"/><path fill="#9bf2ff" d="M65.589,50.17l4.783,4.783l-4.414,4.413c-0.644,0.645-1.689,0.645-2.333,0l-2.45-2.449 c-0.343-0.343-0.503-0.799-0.481-1.248c0.019-0.395,0.18-0.784,0.481-1.086L65.589,50.17z"/><path d="M64.792,60.259c-1.204,0-2.337-0.469-3.188-1.321c-0.851-0.852-1.32-1.984-1.32-3.188c0-1.204,0.469-2.338,1.32-3.188 l3.986-3.986l6.377,6.377l-3.986,3.985C67.129,59.791,65.996,60.259,64.792,60.259z M65.59,51.764l-2.392,2.392 c-0.425,0.426-0.66,0.992-0.66,1.594c0,0.602,0.235,1.168,0.66,1.594c0.853,0.853,2.337,0.851,3.189,0l2.392-2.391L65.59,51.764z"/><g><rect width="2.255" height="11.274" x="66.853" y="46.925" transform="rotate(-45.001 67.98 52.562)"/></g><g><rect width="2.255" height="11.274" x="55.693" y="58.085" transform="rotate(-45.001 56.82 63.722)"/></g></g><g><path d="M31.378,47.031l-1.091-1.885c-0.389,0.031-0.77,0.031-1.158,0l-1.092,1.885l-1.951-1.128l1.867-3.227l0.782,0.144 c0.685,0.125,1.263,0.125,1.948,0l0.782-0.144l1.867,3.227L31.378,47.031z M35.106,44.884l-1.869-3.231l0.521-0.607 c0.422-0.492,0.749-1.057,0.969-1.677l0.267-0.75h3.733v2.255H36.54c-0.166,0.347-0.358,0.678-0.574,0.994l1.092,1.888 L35.106,44.884z M24.31,44.884l-1.951-1.129l1.091-1.888c-0.216-0.316-0.408-0.647-0.574-0.994h-2.186v-2.255h3.733l0.266,0.75 c0.221,0.621,0.547,1.186,0.97,1.677l0.52,0.607L24.31,44.884z M38.726,36.58h-3.733l-0.267-0.75 c-0.22-0.62-0.547-1.185-0.969-1.678l-0.521-0.607l1.869-3.231l1.951,1.129l-1.092,1.888c0.216,0.316,0.408,0.647,0.574,0.994 h2.186V36.58z M24.423,36.58h-3.733v-2.255h2.186c0.167-0.346,0.359-0.678,0.574-0.994l-1.091-1.888l1.951-1.129l1.869,3.231 l-0.52,0.607c-0.423,0.492-0.749,1.057-0.97,1.678L24.423,36.58z M31.463,32.523l-0.782-0.145c-0.685-0.125-1.263-0.125-1.948,0 l-0.782,0.145l-1.867-3.227l1.951-1.129l1.092,1.886c0.388-0.031,0.769-0.031,1.158,0l1.091-1.886l1.951,1.129L31.463,32.523z"/></g><g><path fill="#4791f3" d="M76.373,35.452c-0.267-0.752-0.667-1.44-1.176-2.034l0.905-1.563l-3.728-2.147l-0.904,1.563 c-0.382-0.07-0.775-0.112-1.177-0.112s-0.795,0.042-1.178,0.112l-0.904-1.563l-3.728,2.147l0.904,1.563 c-0.509,0.594-0.909,1.283-1.176,2.034h-1.81v4.294h1.81c0.267,0.752,0.667,1.44,1.176,2.035l-0.904,1.562l3.728,2.147 l0.904-1.562c0.382,0.07,0.775,0.112,1.178,0.112s0.795-0.041,1.177-0.112l0.904,1.562l3.728-2.147l-0.905-1.562 c0.51-0.594,0.909-1.283,1.176-2.035h1.81v-4.294H76.373z"/><path d="M71.961,47.029l-1.09-1.883c-0.389,0.031-0.769,0.031-1.158,0l-1.091,1.883l-5.681-3.272l1.093-1.889 c-0.216-0.316-0.408-0.647-0.574-0.994h-2.187v-6.548h2.187c0.166-0.346,0.358-0.678,0.574-0.994l-1.093-1.889l5.681-3.272 l1.091,1.884c0.389-0.031,0.77-0.031,1.158,0l1.09-1.884l5.682,3.272l-1.093,1.889c0.216,0.316,0.408,0.647,0.574,0.994h2.187 v6.548h-2.187c-0.166,0.347-0.358,0.678-0.574,0.994l1.093,1.889L71.961,47.029z M72.048,42.676l0.739,1.277l1.774-1.022 l-0.739-1.278l0.521-0.607c0.423-0.492,0.749-1.057,0.97-1.677l0.266-0.75h1.478V36.58h-1.478l-0.266-0.75 c-0.221-0.62-0.547-1.185-0.97-1.678l-0.521-0.607l0.739-1.278l-1.774-1.021l-0.739,1.277l-0.782-0.145 c-0.685-0.125-1.262-0.125-1.948,0l-0.782,0.145l-0.739-1.277l-1.774,1.021l0.739,1.278l-0.521,0.607 c-0.423,0.492-0.749,1.057-0.97,1.678l-0.266,0.75h-1.478v2.039h1.478l0.266,0.75c0.221,0.621,0.547,1.186,0.97,1.677 l0.521,0.607l-0.739,1.278l1.774,1.022l0.739-1.277l0.782,0.144c0.685,0.125,1.263,0.125,1.948,0L72.048,42.676z"/><g><path d="M69.164,38.727v-2.255h2.255v2.255C69.164,38.727,71.42,38.727,69.164,38.727z"/></g></g><g><rect width="19.165" height="2.254" x="52.255" y="72.547"/></g><g><rect width="2.255" height="4.509" x="64.655" y="71.42"/></g><g><path d="M55.637,42.109v-2.254h2.254v2.254C55.637,42.109,57.891,42.109,55.637,42.109z M51.127,42.109v-2.254h2.254v2.254 C51.127,42.109,53.382,42.109,51.127,42.109z M46.618,42.109v-2.254h2.255v2.254C46.618,42.109,48.873,42.109,46.618,42.109z M42.108,42.109v-2.254h2.255v2.254C42.108,42.109,44.363,42.109,42.108,42.109z"/></g><g><polygon fill="#fff" points="52.773,33.186 55.33,34.42 52.936,35.8"/><polygon points="52.522,37.339 51.396,35.386 52.919,34.508 51.267,33.711 52.248,31.681 57.741,34.332"/><g><rect width="9.097" height="2.255" x="44.3" y="33.417" transform="translate(-.342 .49)"/></g></g></svg>